<svg width="136" height="135" viewBox="0 0 136 135" fill="none" xmlns="http://www.w3.org/2000/svg">
<path d="M12.9624 78.6028C6.35077 48.5214 25.5174 18.7449 55.7723 12.0952C86.0271 5.44546 114.346 16.1232 120.958 46.2046C127.569 76.286 114.665 113.348 84.4106 119.997C49.8615 135.54 14.6011 118.988 12.9624 78.6028Z" fill="#FF8D75"/>
<g clip-path="url(#clip0)">
<path d="M85.1225 37.9027H72.2893V40.236H85.1225C87.0554 40.236 88.6225 41.8031 88.6225 43.736V44.9026H80.4559V47.236H88.6225V78.2526L85.6056 75.2357H86.2892V72.9024H83.1948C81.2591 71.325 78.4809 71.325 76.5452 72.9024H72.2893V75.2357H74.8989C74.6386 75.9842 74.5497 76.7817 74.6386 77.569H72.2893V79.9023H75.4577C75.6537 80.1991 75.8793 80.476 76.1311 80.7272L77.6395 82.2356H72.2893V84.5689H79.9728L82.3061 86.9023H72.2893V89.2356H81.389C81.0609 89.9864 80.8085 90.7679 80.6365 91.5689H55.9561V81.069H53.6228V97.4022C53.6262 100.622 56.2358 103.231 59.4561 103.235H85.1225V100.902C85.1225 100.637 85.0325 100.38 84.8667 100.173C82.3346 97.0319 81.9934 92.6575 84.0083 89.1621L84.9681 87.481C85.2273 87.0253 85.1504 86.4522 84.7807 86.0808L77.7808 79.0809C76.6563 77.9205 76.6705 76.0725 77.8133 74.9304C78.956 73.7876 80.804 73.7728 81.9643 74.8973L91.2976 84.2306L92.9473 82.5808L90.9558 80.5859V69.1375L94.1909 73.0402C95.8657 74.9537 96.7885 77.4106 96.7891 79.9536V103.235H99.1224V79.9536C99.1258 76.8569 98.0064 73.8634 95.9722 71.5284L90.9558 65.4815V43.736C90.9518 40.5163 88.3422 37.9067 85.1225 37.9027V37.9027ZM59.4561 100.902C57.5227 100.902 55.9561 99.335 55.9561 97.4022V93.9022H80.3995C80.3687 96.4001 81.115 98.8462 82.5346 100.902H59.4561Z" fill="white"/>
<path d="M71.1226 96.2356H73.4559V98.5689H71.1226V96.2356Z" fill="white"/>
<path d="M58.2894 81.0691V88.0691C58.2894 88.7134 58.8118 89.2358 59.4561 89.2358H68.7894C69.4337 89.2358 69.9561 88.7134 69.9561 88.0691V79.9025H67.6228V86.9025H60.6228V81.0691H58.2894Z" fill="white"/>
<path d="M79.2892 68.2358H86.2892V70.5692H79.2892V68.2358Z" fill="white"/>
<path d="M79.2892 63.5692H86.2892V65.9025H79.2892V63.5692Z" fill="white"/>
<path d="M82.7892 54.236H86.2892V56.5693H82.7892V54.236Z" fill="white"/>
<path d="M81.6226 58.9026H86.2892V61.2359H81.6226V58.9026Z" fill="white"/>
<path d="M80.4558 49.5693H86.2891V51.9027H80.4558V49.5693Z" fill="white"/>
<path d="M34.0903 57.352L38.0136 61.6899L36.7854 67.4064C36.6595 67.992 36.9973 68.5776 37.5669 68.7622L43.1342 70.5578L44.9286 76.125C45.1126 76.6947 45.6988 77.0325 46.2844 76.9066L52.0009 75.6778L56.3383 79.6016C56.7832 80.0038 57.4599 80.0038 57.9042 79.6016L62.2416 75.6778L67.9581 76.9066C68.5437 77.0325 69.1299 76.6947 69.3139 76.125L71.1106 70.5578L76.6778 68.7633C77.2481 68.5788 77.5859 67.9932 77.4594 67.4076L76.2312 61.6911L80.1544 57.3531C80.5566 56.9088 80.5566 56.232 80.1544 55.7877L76.2312 51.4498L77.4594 45.7333C77.5859 45.1477 77.2481 44.5621 76.6778 44.3781L71.1106 42.5814L69.3162 37.0141C69.1322 36.4439 68.546 36.1061 67.961 36.232L62.2439 37.4607L57.9054 33.5369C57.461 33.1353 56.7843 33.1353 56.3394 33.5369L52.002 37.4607L46.2855 36.232C45.6999 36.1061 45.1137 36.4439 44.9297 37.0141L43.1342 42.5814L37.5669 44.3752C36.9973 44.5598 36.6595 45.1454 36.7854 45.731L38.0136 51.4475L34.0903 55.7866C33.6882 56.2309 33.6882 56.9076 34.0903 57.352V57.352ZM40.1452 52.5691C40.397 52.2906 40.4995 51.9078 40.4204 51.5409L39.2879 46.2699L44.421 44.6156C44.7782 44.5005 45.0585 44.2208 45.1736 43.8631L46.8278 38.7299L52.0989 39.863C52.4657 39.9399 52.8474 39.8379 53.1265 39.5872L57.1227 35.9756L61.1205 39.5924C61.3991 39.8442 61.7813 39.9461 62.1482 39.8675L67.4192 38.7345L69.0735 43.8682C69.1891 44.2254 69.4688 44.5051 69.826 44.6202L74.9598 46.275L73.8267 51.5455C73.7475 51.9129 73.8501 52.2951 74.1018 52.5737L77.7163 56.5693L74.0996 60.5677C73.8478 60.8457 73.7452 61.2285 73.8244 61.5953L74.9569 66.8664L69.8237 68.5207C69.4666 68.6357 69.1863 68.916 69.0712 69.2732L67.4169 74.4064L62.1459 73.2733C61.779 73.1947 61.3968 73.2972 61.1182 73.549L57.1227 77.1629L53.1243 73.5467C52.8463 73.295 52.4635 73.1924 52.0966 73.271L46.8256 74.4041L45.1713 69.2709C45.0562 68.9132 44.7759 68.6335 44.4188 68.5184L39.2856 66.8641L40.4181 61.5931C40.4973 61.2262 40.3947 60.8434 40.1429 60.5654L36.5285 56.5693L40.1452 52.5691Z" fill="white"/>
<path d="M45.3161 62.1063C45.8014 62.4156 46.3392 62.6349 46.9026 62.754L47.8129 67.3038C47.924 67.8467 48.4019 68.2364 48.9562 68.2358H53.6228C53.9777 68.2364 54.3132 68.0746 54.5348 67.7977C54.7564 67.5203 54.8396 67.1574 54.7615 66.8117L53.7208 62.2111L65.1538 63.5612C65.1988 63.5669 65.2438 63.5692 65.2894 63.5692C65.6414 63.5692 65.9747 63.4102 66.1963 63.1362C66.4179 62.8622 66.5039 62.5033 66.4304 62.1587L62.9304 45.8255C62.8484 45.4438 62.5812 45.1283 62.2183 44.9853C61.8555 44.8417 61.4448 44.889 61.124 45.1117L50.2174 52.6842L46.9037 53.3997C45.0102 53.8081 43.5496 55.3171 43.2021 57.2226C42.8546 59.1281 43.6886 61.0553 45.3161 62.1063ZM61.0158 48.0272L63.8065 61.053L53.1899 59.7986L52.001 54.2906L61.0158 48.0272ZM52.1633 65.9025H49.9126L49.2701 62.6885L51.3351 62.243L52.1633 65.9025ZM45.8493 56.7492C46.2013 56.2007 46.7584 55.8156 47.3959 55.6806L49.7959 55.1622L50.4413 58.1523L50.8321 59.9655L48.431 60.4822C47.4597 60.6913 46.4582 60.2948 45.8937 59.4779C45.3286 58.661 45.3109 57.5838 45.8493 56.7492Z" fill="white"/>
<path d="M67.6227 51.9027H69.956V54.236H67.6227V51.9027Z" fill="white"/>
<path d="M65.9342 47.3586L68.267 46.1925L69.3106 48.2792L66.9773 49.4458L65.9342 47.3586Z" fill="white"/>
<path d="M67.6227 57.736H69.956V60.0693H67.6227V57.736Z" fill="white"/>
</g>
<defs>
<clipPath id="clip0">
<rect width="70" height="70" fill="white" transform="translate(31.4548 33.2356)"/>
</clipPath>
</defs>
</svg>
