<svg width="282" height="50" viewBox="0 0 282 50" fill="none" xmlns="http://www.w3.org/2000/svg">
<path d="M50.9837 32.3981C51.116 32.3981 51.223 32.2905 51.223 32.1598C51.223 32.0254 51.116 31.9179 50.9837 31.9179C50.8499 31.9179 50.7451 32.0254 50.7451 32.1598C50.7451 32.2905 50.8499 32.3981 50.9837 32.3981Z" fill="#FF8D75"/>
<path d="M50.522 32.3981C50.6551 32.3981 50.7614 32.2905 50.7614 32.1598C50.7614 32.0254 50.6551 31.9179 50.522 31.9179C50.389 31.9179 50.2819 32.0254 50.2819 32.1598C50.2819 32.2905 50.389 32.3981 50.522 32.3981Z" fill="#FF8D75"/>
<path d="M22.2791 38.1417H22.2509H14.576C13.8996 38.1417 13.3525 37.5935 13.3525 36.914L13.3554 30.8679C13.3554 30.2608 13.8602 29.6559 14.579 29.6589H22.2509H22.2791C25.1023 29.6589 27.391 31.5595 27.391 33.9006C27.391 36.2433 25.1023 38.1417 22.2791 38.1417ZM14.5857 11.9927H14.5953H21.4407V11.9987C24.1375 12.116 26.2805 13.9583 26.2805 16.2129C26.2805 18.4682 24.1375 20.309 21.4407 20.427V20.4337L14.5946 20.4315C13.9189 20.4315 13.3718 19.8834 13.3718 19.2045L13.3554 13.166C13.3829 12.5133 13.9271 11.9927 14.5857 11.9927V11.9927ZM33.8699 22.6734C35.6703 20.4016 36.7615 17.2651 36.476 13.5558C36.1378 9.30952 34.0201 6.56057 30.8579 4.86312C27.5404 3.0962 23.2165 2.98717 18.1826 2.98717H4.19462C3.51968 2.98717 2.97333 3.53681 2.97333 4.21714V45.6992C2.97333 46.3728 3.51001 46.9187 4.18124 46.9277H19.1378C21.8547 46.9277 24.3798 46.9583 26.641 46.5991C29.786 46.0823 32.3669 44.9487 34.2468 43.1474C34.7121 42.7516 40.5792 37.542 37.9947 28.7187C37.9947 28.7187 37.0558 25.3812 33.8699 22.6734" fill="#FF8D75"/>
<path d="M69.5736 6.88612H61.6237C60.9785 6.88612 60.4158 7.43352 60.4158 8.1146V32.1247C59.4487 32.5564 58.5188 32.9342 57.0507 33.1904C56.2048 33.3442 55.1299 33.4779 54.1517 33.4234C51.6682 33.1359 51.2579 30.9709 51.2579 30.9709L51.252 30.9806C50.9264 29.5244 50.9487 27.6253 50.8751 26.1003C50.7621 23.7816 50.8751 21.4471 50.8751 19.3292V8.1146C50.8751 7.44697 50.331 6.88612 49.6486 6.88612H41.6987C41.0542 6.88612 40.4922 7.43352 40.4922 8.1146V24.0504C40.4922 26.408 40.5294 28.6686 40.7294 30.7551C41.5136 37.5345 47.2462 42.7964 54.2015 42.7964C55.0437 42.7964 55.8681 42.7187 56.6679 42.5694V42.5731C56.9102 42.526 57.1481 42.4783 57.3822 42.423C59.7431 41.8472 68.5657 38.4814 70.7986 37.6988V8.1146C70.7986 7.44697 70.256 6.88612 69.5736 6.88612Z" fill="#FF8D75"/>
<path d="M95.3858 16.239C95.3546 16.2427 93.7036 16.1083 92.6221 17.6198C90.4322 20.713 86.5543 26.3901 86.5498 26.3931C86.4145 26.5955 86.1841 26.7292 85.9232 26.7292C85.5039 26.7292 85.1568 26.3901 85.1568 25.9712V25.9413V4.47403C85.1538 3.79744 84.609 3.25078 83.9355 3.25078H83.9206H76.0666H75.9715C75.327 3.25078 74.7643 3.80117 74.7643 4.47925V45.6947C74.7643 45.6947 74.7643 47.0128 75.9863 47.0128H83.9206C84.6038 47.0128 85.1471 46.4512 85.1471 45.7843V38.9437L85.1494 38.9027C85.1494 38.483 85.4876 38.1417 85.9039 38.1417C86.1662 38.1417 86.3974 38.2768 86.5327 38.48C88.2706 40.6964 90.6129 43.8367 92.1389 45.5797C92.1419 45.5812 93.2695 47.0128 94.8171 47.0128H105.225L93.8813 32.2644L105.225 16.239H95.3858Z" fill="#FF8D75"/>
<path d="M170.634 31.5737C170.661 32.1718 170.22 32.6617 169.645 32.7528L169.497 32.7648C169.484 32.7648 169.47 32.7693 169.457 32.7693H169.474L166.642 33.0359C166.45 33.0717 166.251 33.0926 166.048 33.0926C164.286 33.0926 162.857 31.6588 162.857 29.8904C162.857 28.1212 164.286 26.6859 166.048 26.6859L170.634 26.2468V31.5737ZM184.957 35.2188L184.576 35.1949C182.018 35.1112 181.252 34.3107 181.02 33.245C180.945 32.9082 180.97 31.3675 180.97 30.8358V19.029C180.97 14.4445 180.265 11.1593 177.751 8.78976C175.353 6.52176 170.965 6.03261 166.398 6.31489C165.001 6.39405 163.63 6.51429 162.28 6.66066C159.473 6.96087 158.645 7.11172 157.288 7.31485C155.696 7.57772 154.89 8.72479 154.64 9.70981C154.532 10.1303 154.528 10.5201 154.562 10.8143L154.892 17.7274L154.895 17.7909L154.899 17.8827C154.899 17.8827 155.143 17.8715 154.899 17.9126C158.345 17.3353 158.759 17.1397 163.509 16.5123C165.146 16.2965 169.093 15.8447 169.97 16.407C170.755 16.8969 170.708 17.2875 170.639 18.5197C167.278 18.8998 163.977 18.8849 161.062 19.4786C158.131 20.0843 155.808 21.3351 154.31 23.4381C152.823 25.5657 152.258 28.8068 152.659 32.2129C152.904 34.2741 153.615 36.2964 154.888 37.9468C155.537 38.7877 156.354 39.3351 157.275 39.8593C159.231 40.9713 161.518 41.5284 163.743 41.624C164.346 41.6501 165.139 41.6016 165.724 41.5254C166.384 41.4395 167.008 41.3081 167.629 41.1468C168.828 40.8055 170.343 40.2073 171.832 39.1633L172.006 39.3104C174.77 41.6143 179.752 43.3409 184.576 41.6927L184.957 41.5747V35.2188V35.2188Z" fill="#FF8D75"/>
<path d="M228.908 34.0731L233.494 33.6325V38.9602C233.521 39.5591 233.082 40.049 232.506 40.1378L232.358 40.152C232.345 40.152 232.33 40.1565 232.317 40.1565H232.337L229.503 40.4239C229.31 40.4597 229.111 40.4791 228.908 40.4791C227.146 40.4791 225.718 39.046 225.718 37.2761C225.718 35.507 227.146 34.0731 228.908 34.0731ZM221.164 47.0128H251.19L247.816 42.606L247.435 42.5828C244.879 42.4985 244.111 41.6971 243.88 40.633C243.807 40.2962 243.83 38.7555 243.83 38.2216V26.4163C243.83 21.8317 243.125 18.5466 240.612 16.1778C238.215 13.9082 233.825 13.4191 229.259 13.7029C227.861 13.782 226.49 13.9015 225.14 14.0464V14.0472C222.332 14.3474 221.505 14.4982 220.148 14.7028C218.557 14.9635 217.751 16.1113 217.5 17.0971C217.392 17.5175 217.387 17.9073 217.422 18.2016L217.752 25.1131L217.755 25.1788L217.761 25.2707C217.761 25.2707 218.003 25.258 217.761 25.2983C221.204 24.7226 221.621 24.5276 226.37 23.8996C228.007 23.683 231.955 23.232 232.832 23.7958C233.614 24.2849 233.567 24.6748 233.501 25.9055C230.139 26.2878 226.837 26.2714 223.922 26.8651C220.992 27.4707 218.666 28.7209 217.171 30.8261C215.683 32.953 215.119 36.1925 215.519 39.6002C215.763 41.6613 216.475 43.6829 217.748 45.3333C218.303 46.0509 219.742 47.0128 221.164 47.0128" fill="#FF8D75"/>
<path d="M268.437 16.239C268.407 16.2427 266.755 16.1083 265.673 17.6198C263.484 20.713 259.606 26.3901 259.603 26.3931C259.466 26.5955 259.235 26.7292 258.974 26.7292C258.556 26.7292 258.209 26.3901 258.209 25.9712V25.9413V4.47403C258.204 3.79744 257.66 3.25078 256.986 3.25078H256.974H249.117H249.023C248.378 3.25078 247.816 3.80117 247.816 4.47925V45.6947C247.816 45.6947 247.816 47.0128 249.037 47.0128H256.974C257.655 47.0128 258.2 46.4512 258.2 45.7843V38.9437L258.201 38.9027C258.201 38.483 258.538 38.1417 258.957 38.1417C259.218 38.1417 259.449 38.2768 259.584 38.48C261.32 40.6964 263.666 43.8367 265.19 45.5797C265.193 45.5812 266.32 47.0128 267.869 47.0128H278.277L266.934 32.2644L278.277 16.239H268.437Z" fill="#FF8D75"/>
<path d="M201.644 25.7725C200.352 26.5783 198.302 26.4745 196.25 26.473H195.144L195.151 14.3324C196.422 14.0673 197.473 13.8194 198.83 13.7335C202.931 13.4736 203.444 16.2248 203.614 19.5024C203.752 22.2028 203.435 24.6703 201.644 25.7725ZM213.573 14.7237C212.644 8.42527 210.118 4.11105 203.741 3.29182C197.464 2.48305 191.225 4.53971 185.597 7.17365C185.504 7.22816 185.362 7.31181 185.279 7.39097C185.006 7.6165 184.826 7.95853 184.826 8.34313V31.0845V35.2038V41.5956V43.7374V45.6962C184.826 46.3758 185.389 46.9254 186.032 46.9254H193.984C194.665 46.9254 195.209 46.3638 195.209 45.6962L195.212 36.6667C198.262 36.999 201.444 36.9513 204.01 36.3478C209.617 35.035 212.868 30.8149 213.641 24.7076C214.062 21.6405 214.062 17.9902 213.573 14.7237" fill="#FF8D75"/>
<path d="M120.875 30.036C120.901 30.6349 120.46 31.1241 119.885 31.2144L119.737 31.2279C119.723 31.2279 119.708 31.2324 119.696 31.2324H119.714L116.881 31.4997C116.689 31.5355 116.489 31.555 116.285 31.555C114.524 31.555 113.095 30.1211 113.095 28.3527C113.095 26.5836 114.524 25.149 116.285 25.149L120.875 24.7091V30.036ZM161.712 40.6031L156.923 38.642L154.794 37.8564C154.815 37.8848 154.831 37.9132 154.852 37.94C154.904 38.008 154.962 38.0722 155.017 38.1357L145.642 38.1439V4.38591C145.642 4.38591 145.592 3.2239 144.406 3.2239H136.502C136.502 3.2239 135.239 3.22838 135.239 4.47702V16.7722C135.242 19.9857 135.242 23.2267 135.239 26.4021V33.6803H135.194L134.814 33.6572C132.257 33.5743 131.489 32.7737 131.258 31.7081C131.184 31.3705 131.208 29.8314 131.208 29.2982V17.4914C131.208 12.9083 130.505 9.62242 127.99 7.2521C125.594 4.98558 121.205 4.49419 116.638 4.77723C115.239 4.85713 113.868 4.97737 112.52 5.12075V5.12299C109.713 5.4232 108.882 5.57406 107.528 5.77868C105.934 6.04006 105.129 7.18638 104.877 8.17364C104.77 8.59259 104.767 8.98391 104.8 9.2774L105.129 16.189L105.132 16.2539L105.139 16.3465C105.139 16.3465 105.381 16.3331 105.139 16.3734C108.583 15.7976 108.998 15.6027 113.749 14.9754C115.384 14.7581 119.332 14.3085 120.209 14.8701C120.993 15.36 120.945 15.7506 120.878 16.9806C117.517 17.3637 114.216 17.3472 111.302 17.9409C108.37 18.5466 106.046 19.796 104.55 21.9012C103.062 24.0273 102.497 27.2699 102.897 30.6752C103.143 32.7364 103.855 34.758 105.128 36.4099C105.775 37.2493 106.594 37.7974 107.513 38.3224C109.471 39.4336 111.757 39.99 113.983 40.0863C114.584 40.114 115.377 40.0639 115.961 39.987C116.623 39.9004 117.246 39.7712 117.868 39.6106C119.067 39.2678 120.581 38.6712 122.07 37.6256L122.245 37.772H122.246C125.009 40.0766 129.99 41.8017 134.814 40.1565L135.239 40.0228V43.1153H135.25V45.8433C135.292 46.4848 135.819 46.9897 136.465 46.9934H161.078C161.685 46.9643 162.179 46.496 162.24 45.8941C162.257 45.5185 162.275 45.1078 162.292 44.6746V41.4903C162.488 41.5172 162.684 41.5246 162.883 41.5441L161.712 40.6031V40.6031Z" fill="#FF8D75"/>
</svg>
