<svg width="164" height="164" viewBox="0 0 164 164" fill="none" xmlns="http://www.w3.org/2000/svg">
<path d="M122.155 123.191C100.376 144.969 64.9644 144.867 43.0603 122.963C21.1563 101.059 17.6549 62.2481 39.4334 40.4697C61.2119 18.6912 96.6235 18.793 118.528 40.6971C150.237 61.4268 155.293 100.05 122.155 123.191Z" fill="#FF8D75"/>
<g clip-path="url(#clip0)">
<path d="M102.671 86.0043V69.6709C102.687 61.9964 96.9532 55.5268 89.3323 54.621L93.2208 46.8588C93.4019 46.4965 93.382 46.0659 93.1678 45.7212C92.9536 45.3771 92.5765 45.1686 92.1709 45.1709H71.1709C70.7664 45.1709 70.391 45.38 70.178 45.7241C69.9655 46.0676 69.9461 46.4971 70.1267 46.8588L74.0107 54.621C66.4023 55.5507 60.6806 62.0061 60.6709 69.6709V90.6709H63.0042V69.6709C63.0128 62.5866 68.7533 56.8461 75.8376 56.8376H87.5042C90.9091 56.8325 94.1767 58.1831 96.5841 60.5911C98.992 62.9985 100.343 66.2661 100.338 69.6709V86.0043H102.671ZM86.783 54.5043H76.5588L73.0588 47.5043H90.283L86.783 54.5043Z" fill="white"/>
<path d="M71.7543 62.5996C72.3929 62.2288 73.0793 61.9468 73.7948 61.7622L73.2115 59.5035C72.2915 59.7422 71.4079 60.1045 70.5853 60.5802L71.7543 62.5996Z" fill="white"/>
<path d="M65.3376 74.3376H67.6709V69.6709C67.6652 67.4623 68.5607 65.3472 70.1512 63.8142L68.526 62.1411C66.4814 64.1116 65.3296 66.8311 65.3376 69.6709V74.3376Z" fill="white"/>
<path d="M49.9983 102.51L69.8048 113.313C72.0339 114.531 74.5336 115.17 77.0743 115.171H115.504C116.148 115.171 116.671 114.648 116.671 114.004V93.0041C116.671 92.3598 116.148 91.8375 115.504 91.8375H106.576L106.443 91.7338C105.073 90.664 103.558 89.7935 101.944 89.1469C96.2833 86.837 89.8552 87.4049 84.6867 90.6708H75.8376C73.9799 90.6702 72.2327 91.5549 71.1333 93.0525C70.0344 94.5502 69.7143 96.4819 70.2714 98.2541L55.8493 91.028C53.7074 89.9524 51.1388 90.198 49.2401 91.6603C47.6257 92.8697 46.6743 94.7672 46.6709 96.7844V96.9126C46.6681 99.2476 47.9452 101.397 49.9983 102.51V102.51ZM107.338 94.1708H114.338V112.837H107.338V94.1708ZM49.0042 96.7844C49.0128 95.4782 49.64 94.2528 50.695 93.4826C51.8827 92.5866 53.4766 92.4436 54.8051 93.1141L72.983 102.214C73.1442 102.295 73.3231 102.337 73.5042 102.337H91.0042V100.004H75.8376C73.9047 100.004 72.3376 98.437 72.3376 96.5041C72.3376 94.5713 73.9047 93.0041 75.8376 93.0041H85.0308C85.2592 93.0036 85.4825 92.9369 85.6739 92.8116C90.2449 89.8015 96.007 89.2398 101.074 91.3111C102.483 91.8762 103.807 92.6367 105.004 93.5698V112.837H77.0743C74.9244 112.837 72.8098 112.296 70.9237 111.265L51.1114 100.46C49.8103 99.7546 49.0014 98.3925 49.0042 96.9126V96.7844Z" fill="white"/>
<path d="M109.671 107.004H112.004V109.338H109.671V107.004Z" fill="white"/>
<path d="M82.8376 86.0043V83.6709H84.0042C86.5814 83.6709 88.6709 81.5814 88.6709 79.0043C88.6709 76.4271 86.5814 74.3376 84.0042 74.3376H79.3376C78.049 74.3376 77.0042 73.2928 77.0042 72.0043C77.0042 70.7157 78.049 69.6709 79.3376 69.6709H87.5042V67.3376H82.8376V65.0043H80.5042V67.3376H79.3376C76.7604 67.3376 74.6709 69.4271 74.6709 72.0043C74.6709 74.5814 76.7604 76.6709 79.3376 76.6709H84.0042C85.2928 76.6709 86.3376 77.7157 86.3376 79.0043C86.3376 80.2928 85.2928 81.3376 84.0042 81.3376H75.8376V83.6709H80.5042V86.0043H82.8376Z" fill="white"/>
</g>
<defs>
<clipPath id="clip0">
<rect width="70" height="70" fill="white" transform="translate(46.6709 45.1709)"/>
</clipPath>
</defs>
</svg>
