<svg width="250" height="50" viewBox="0 0 250 50" fill="none" xmlns="http://www.w3.org/2000/svg">
<path d="M29 9.39563L14.5 18.7913L29 28.1869L14.5 37.5825L0 28.1361L14.5 18.7405L0 9.39563L14.5 0L29 9.39563ZM14.425 40.6044L28.925 31.2087L43.425 40.6044L28.925 50L14.425 40.6044ZM29 28.1361L43.5 18.7405L29 9.39563L43.425 0L57.925 9.39563L43.425 18.7913L57.925 28.1869L43.425 37.5825L29 28.1361Z" fill="#FF8D75"/>
<path d="M69.3 9.39568H81.025C88.5 9.39568 94.675 13.7888 94.675 23.8192V25.9269C94.675 36.0336 88.9 40.579 81.25 40.579H69.3V9.39568ZM75.85 15.0585V34.8909H80.875C85.125 34.8909 87.975 32.0722 87.975 25.7999V24.1494C87.975 17.8771 84.975 15.0585 80.65 15.0585H75.85V15.0585ZM98.15 15.3632H103.4L104.25 21.2291C105.25 17.2423 107.8 15.1092 112.425 15.1092H114.05V21.8385H111.35C106.025 21.8385 104.725 23.7177 104.725 29.0503V40.6552H98.25V15.3632H98.15ZM115.35 28.5171V27.806C115.35 19.35 120.675 14.7283 127.925 14.7283C135.325 14.7283 140.5 19.35 140.5 27.806V28.5171C140.5 36.8208 135.475 41.29 127.925 41.29C119.9 41.2139 115.35 36.8462 115.35 28.5171ZM133.875 28.4409V27.806C133.875 23.1082 131.55 20.2895 127.85 20.2895C124.225 20.2895 121.825 22.8797 121.825 27.806V28.4409C121.825 32.9863 124.15 35.5765 127.85 35.5765C131.55 35.5003 133.875 32.9863 133.875 28.4409ZM143.9 15.3632H149.3L149.925 20.1372C151.225 16.9376 154 14.7283 158.1 14.7283C164.425 14.7283 168.6 19.35 168.6 27.9076V28.6186C168.6 36.9223 163.975 41.3154 158.1 41.3154C154.175 41.3154 151.475 39.5125 150.15 36.6176V49.3906H143.825L143.9 15.3632ZM162.025 28.4409V27.8822C162.025 22.8543 159.475 20.3657 156.075 20.3657C152.45 20.3657 150.05 23.1844 150.05 27.8822V28.3647C150.05 32.834 152.375 35.6527 156 35.6527C159.725 35.5765 162.025 33.1641 162.025 28.4409ZM178.175 35.9828L177.625 40.6044H172.075V6.9071H178.4V19.8324C179.8 16.5313 182.575 14.7283 186.5 14.7283C192.45 14.8045 196.85 18.9691 196.85 27.349V28.1362C196.85 36.516 192.675 41.3154 186.35 41.3154C182.175 41.2139 179.475 39.2586 178.175 35.9828ZM190.2 28.1362V27.5013C190.2 22.8797 187.725 20.2895 184.25 20.2895C180.7 20.2895 178.225 23.1844 178.225 27.5775V28.1362C178.225 32.834 180.625 35.5765 184.175 35.5765C187.975 35.5765 190.2 33.1641 190.2 28.1362ZM199.625 28.5171V27.806C199.625 19.35 204.95 14.7283 212.2 14.7283C219.6 14.7283 224.775 19.35 224.775 27.806V28.5171C224.775 36.8208 219.675 41.29 212.2 41.29C204.175 41.2139 199.625 36.8462 199.625 28.5171ZM218.2 28.4409V27.806C218.2 23.1082 215.875 20.2895 212.175 20.2895C208.55 20.2895 206.15 22.8797 206.15 27.806V28.4409C206.15 32.9863 208.475 35.5765 212.175 35.5765C215.9 35.5003 218.2 32.9863 218.2 28.4409ZM233.25 27.5013L224.525 15.3632H232L237.025 22.9559L242.125 15.3632H249.525L240.675 27.4251L250 40.6044H242.675L236.975 32.2245L231.425 40.6044H223.775L233.25 27.5013Z" fill="#FF8D75"/>
</svg>
