<svg width="211" height="40" viewBox="0 0 211 40" fill="none" xmlns="http://www.w3.org/2000/svg">
<g clip-path="url(#clip0)">
<path d="M27.1126 4.13524C26.0537 3.54946 23.0185 3.91166 19.373 5.0364C12.9928 9.38312 7.60816 15.7869 7.2324 26.0704C7.16398 26.3163 6.53469 26.0369 6.41023 25.9609C4.68735 22.6695 4.00477 19.2038 5.44334 14.2041C5.71147 13.7592 4.83484 13.2115 4.67722 13.3679C4.36145 13.6832 3.04512 15.0808 2.17085 16.5922C-2.16274 24.085 0.671235 33.6856 8.2531 37.8872C15.8334 42.0953 25.4056 39.3808 29.6263 31.8233C34.5092 23.1005 29.9752 5.72879 27.1127 4.1355L27.1126 4.13524Z" fill="#FF8D75"/>
<path d="M54.2457 8.32166C45.2578 8.32166 38.7339 14.9815 38.7339 24.1575C38.7339 33.4088 45.2408 39.87 54.5589 39.87C59.2655 39.87 62.9917 38.4032 65.9552 35.3835C66.8402 34.431 66.9355 33.513 66.9355 33.1621C66.9355 31.6662 65.8194 30.5797 64.2816 30.5797C63.5065 30.5797 62.8582 30.8714 62.1146 31.5567C60.4365 33.1152 58.2267 34.7071 54.5589 34.7071C49.4585 34.7071 45.3106 30.8905 45.0493 25.9892H65.3489C67.5563 25.9892 68.6286 24.9605 68.6286 22.8453C68.6286 22.2226 68.6286 21.7732 68.503 20.8866C67.4094 13.0193 62.0802 8.3227 54.2463 8.3227L54.2457 8.32166ZM54.2457 13.2341C59.1194 13.2341 62.2468 16.3298 62.4397 21.3261H45.0556C45.512 16.7021 49.4346 13.2341 54.2455 13.2341H54.2457Z" fill="#FF8D75"/>
<path d="M88.0125 8.32166C83.9296 8.32166 79.887 10.6616 78.3077 13.9115V11.9031C78.3077 8.79164 75.8883 8.63402 75.4037 8.63402C73.9702 8.63402 72.4381 9.49269 72.4381 11.9031V36.1617C72.4381 39.3927 75.0134 39.556 75.5294 39.556C76.0454 39.556 78.6219 39.3927 78.6219 36.1617V23.1573C78.6219 17.4991 81.8389 13.5471 86.4445 13.5471C90.9055 13.5471 93.0748 16.465 93.0748 22.4686V36.1617C93.0748 39.3927 95.6513 39.556 96.1673 39.556C96.6833 39.556 99.2586 39.3927 99.2586 36.1617V20.533C99.2586 14.63 96.3041 8.32349 88.0125 8.32349V8.32166Z" fill="#FF8D75"/>
<path d="M127.238 8.63452C125.809 8.63452 124.773 9.46526 124.156 11.0997L115.695 32.3042L107.3 11.0997C106.642 9.44074 105.614 8.63452 104.154 8.63452C102.45 8.63452 101.062 9.96042 101.062 11.5906C101.062 11.9941 101.108 12.5173 101.45 13.3345L111.173 36.2162C112.332 38.9766 114.237 39.5558 115.633 39.5558C117.027 39.5558 118.934 38.9766 120.095 36.2175L129.881 13.2086C130.215 12.4015 130.267 11.8089 130.267 11.5284C130.267 9.87938 128.963 8.63491 127.238 8.63491V8.63452Z" fill="#FF8D75"/>
<path d="M145.213 8.32164C141.258 8.32164 137.574 9.4195 134.842 11.4106C133.915 12.0478 133.464 12.8428 133.464 13.8423C133.464 15.2185 134.519 16.2974 135.867 16.2974C136.45 16.2974 137.103 16.0659 137.702 15.6477C140.051 14.0871 142.258 13.3593 144.648 13.3593C149.22 13.3593 151.844 15.6769 151.844 19.7184V20.3881C141.581 20.3993 131.142 21.6347 131.142 30.5339C131.142 36.9388 136.634 39.8064 142.076 39.8064C146.41 39.8064 149.872 38.0947 152.093 34.8536V36.4121C152.093 38.7331 153.656 39.5561 154.998 39.5561C155.28 39.5561 157.775 39.4677 157.775 36.4121V20.0924C157.775 12.7204 153.078 8.32007 145.212 8.32007L145.213 8.32164ZM150.543 24.9259H151.844V26.3457C151.844 31.5388 148.526 34.8938 143.394 34.8938C142.001 34.8938 137.453 34.5707 137.453 30.4085C137.453 25.4939 144.924 24.9259 150.543 24.9259V24.9259Z" fill="#FF8D75"/>
<path d="M173.881 14.2346C176.587 14.2346 176.724 12.1362 176.724 11.7158C176.724 10.468 175.977 9.13425 173.881 9.13425H168.318V3.52538C168.318 1.01993 166.687 0.131104 165.289 0.131104C164.773 0.131104 162.198 0.294366 162.198 3.52538V30.16C162.198 36.3067 165.24 39.5555 170.997 39.5555C172.486 39.5555 173.938 39.2928 174.886 38.8523C175.975 38.3112 176.598 37.4213 176.598 36.4117C176.598 34.9875 175.562 33.9545 174.133 33.9545C173.857 33.9545 173.464 34.0227 173.031 34.1468C172.502 34.2788 172.143 34.3301 171.75 34.3301C169.408 34.3301 168.318 32.8063 168.318 29.534V14.232H173.881V14.2346Z" fill="#FF8D75"/>
<path d="M194.327 8.32166C184.974 8.32166 178.189 14.929 178.189 24.0316C178.189 28.4634 179.833 32.5026 182.817 35.4048C185.778 38.2836 189.866 39.869 194.328 39.869C203.564 39.869 210.529 33.0605 210.529 24.0319C210.529 14.9291 203.713 8.32192 194.328 8.32192L194.327 8.32166ZM194.327 34.643C187.913 34.643 184.559 29.3045 184.559 24.0309C184.559 16.7842 189.623 13.4839 194.327 13.4839C199.031 13.4839 204.095 16.7842 204.095 24.0309C204.095 31.3225 199.031 34.643 194.327 34.643Z" fill="#FF8D75"/>
</g>
<defs>
<clipPath id="clip0">
<rect width="210.667" height="40" fill="white"/>
</clipPath>
</defs>
</svg>
