<svg width="208" height="40" viewBox="0 0 208 40" fill="none" xmlns="http://www.w3.org/2000/svg">
<g clip-path="url(#clip0)">
<path d="M16.1109 6.20155C13.6323 6.20155 13.0126 7.44186 13.0126 9.6124V13.6434H19.519L18.8993 20.155H13.0126V39.6899H5.26702V20.155H0V13.6434H5.26702V9.92248C5.26702 3.41085 7.74562 0 15.1814 0C16.7305 0 18.5895 0 19.519 0.310078V6.20155" fill="#FF8D75"/>
<path d="M20.1386 25.7364C20.1386 18.6046 23.5467 13.0232 30.6726 13.0232C34.7004 13.0232 36.8691 14.8837 38.1084 17.6744V13.6433H45.5442V39.3798H38.1084V35.3488C36.8691 37.8294 34.7004 39.6899 30.6726 39.6899C23.5467 39.6899 20.1386 34.4185 20.1386 26.9767V25.7364ZM27.8842 27.5968C27.8842 31.3178 29.4334 34.1085 32.8414 34.1085C35.9397 34.1085 37.7986 31.6278 37.7986 28.217V25.4263C37.7986 21.7054 36.2495 19.5348 32.8414 19.5348C29.4334 19.2247 27.8842 22.0154 27.8842 25.7364V27.5968Z" fill="#FF8D75"/>
<path d="M61.9649 13.3335C65.0632 13.3335 67.8516 13.9537 69.4007 15.194L67.5418 20.7754C66.3025 20.1552 64.4435 19.535 62.2748 19.535C57.9372 19.535 56.0783 22.0157 56.0783 26.0467V27.5971C56.0783 31.6281 57.9372 34.1087 62.2748 34.1087C64.4435 34.1087 66.3025 33.4885 67.5418 32.8684L69.4007 38.4498C67.8516 39.6901 65.0632 40.3102 61.9649 40.3102C52.6702 40.3102 48.6425 35.349 48.6425 27.5971V26.0467C48.6425 17.9847 52.6702 13.3335 61.9649 13.3335Z" fill="#FF8D75"/>
<path d="M70.3302 27.5971V25.4265C70.3302 17.9847 74.3579 13.3335 83.033 13.3335C91.0885 13.3335 94.4965 18.2947 94.4965 25.4265V29.4575H78.0758C78.3857 32.8684 79.9348 34.4188 84.2723 34.4188C87.0607 34.4188 90.159 33.7986 92.6376 32.8684L94.1867 38.1397C92.0179 39.0699 87.9902 40.0002 84.2723 40.0002C74.0481 40.0002 70.3302 35.349 70.3302 27.5971ZM78.0758 24.1862H87.3706V23.5661C87.3706 20.7754 86.1313 18.6048 82.7232 18.6048C79.625 18.6048 78.0758 20.7754 78.0758 24.1862Z" fill="#FF8D75"/>
<path d="M123.62 27.5969C123.62 34.7287 120.212 40.3101 113.086 40.3101C109.058 40.3101 106.58 38.4496 105.34 35.969V40H97.9046V0.620155L105.65 0V17.3643C106.89 15.1938 109.368 13.3333 112.776 13.3333C119.902 13.3333 123.31 18.6046 123.31 26.0465L123.62 27.5969ZM115.874 25.7364C115.874 22.0155 114.325 19.5349 110.607 19.5349C107.509 19.5349 105.65 21.7054 105.65 25.4264V27.907C105.65 31.6279 107.509 33.7984 110.607 33.7984C114.325 33.7984 115.874 31.0078 115.874 27.5969V25.7364Z" fill="#FF8D75"/>
<path d="M126.099 27.287V26.0467C126.099 18.6048 130.436 13.3335 138.801 13.3335C147.477 13.3335 151.814 18.6048 151.814 26.0467V27.287C151.814 34.7288 147.477 40.0002 139.111 40.0002C130.436 40.0002 126.099 34.7288 126.099 27.287ZM144.068 25.4265C144.068 22.0157 142.519 19.225 139.111 19.225C135.393 19.225 134.154 22.0157 134.154 25.4265V27.9071C134.154 31.318 135.703 34.1087 139.111 34.1087C142.829 34.1087 144.068 31.318 144.068 27.9071V25.4265Z" fill="#FF8D75"/>
<path d="M154.293 27.287V26.0467C154.293 18.6048 158.63 13.3335 166.996 13.3335C175.671 13.3335 179.698 18.6048 179.698 26.0467V27.287C179.698 34.7288 175.361 40.0002 166.996 40.0002C158.63 40.0002 154.293 34.7288 154.293 27.287ZM172.263 25.4265C172.263 22.0157 170.713 19.225 167.305 19.225C163.587 19.225 162.348 22.0157 162.348 25.4265V27.9071C162.348 31.318 163.897 34.1087 167.305 34.1087C171.023 34.1087 172.263 31.318 172.263 27.9071V25.4265Z" fill="#FF8D75"/>
<path d="M190.852 26.0465L198.598 13.6434H206.963L198.598 26.3566L207.273 39.6899H198.907L190.852 26.9767V39.6899H183.106V0.620155L190.852 0" fill="#FF8D75"/>
</g>
<defs>
<clipPath id="clip0">
<rect width="207.273" height="40" fill="white"/>
</clipPath>
</defs>
</svg>
