<svg width="162" height="55" viewBox="0 0 162 55" fill="none" xmlns="http://www.w3.org/2000/svg">
<path d="M68.7975 28.2055C68.7975 35.8397 62.8598 41.4652 55.5729 41.4652C48.286 41.4652 42.3483 35.8397 42.3483 28.2055C42.3483 20.5174 48.286 14.9457 55.5729 14.9457C62.8598 14.9457 68.7975 20.5174 68.7975 28.2055ZM63.0084 28.2055C63.0084 23.4348 59.567 20.1707 55.5729 20.1707C51.5788 20.1707 48.1374 23.4348 48.1374 28.2055C48.1374 32.9283 51.5788 36.2402 55.5729 36.2402C59.567 36.2402 63.0084 32.9223 63.0084 28.2055Z" fill="#FF8D75"/>
<path d="M97.3269 28.2055C97.3269 35.8397 91.3892 41.4652 84.1023 41.4652C76.8154 41.4652 70.8777 35.8397 70.8777 28.2055C70.8777 20.5234 76.8154 14.9457 84.1023 14.9457C91.3892 14.9457 97.3269 20.5174 97.3269 28.2055ZM91.5378 28.2055C91.5378 23.4348 88.0964 20.1707 84.1023 20.1707C80.1082 20.1707 76.6668 23.4348 76.6668 28.2055C76.6668 32.9283 80.1082 36.2402 84.1023 36.2402C88.0964 36.2402 91.5378 32.9223 91.5378 28.2055Z" fill="#FF8D75"/>
<path d="M124.668 15.7468V39.5522C124.668 49.3446 118.926 53.344 112.138 53.344C105.749 53.344 101.903 49.0457 100.453 45.5305L105.493 43.4201C106.391 45.5783 108.59 48.125 112.132 48.125C116.477 48.125 119.17 45.4288 119.17 40.3533V38.4462H118.968C117.672 40.0544 115.176 41.4593 112.025 41.4593C105.434 41.4593 99.3953 35.6843 99.3953 28.2533C99.3953 20.7685 105.434 14.9457 112.025 14.9457C115.17 14.9457 117.666 16.3506 118.968 17.9109H119.17V15.7527H124.668V15.7468ZM119.58 28.2533C119.58 23.5843 116.483 20.1707 112.543 20.1707C108.548 20.1707 105.202 23.5843 105.202 28.2533C105.202 32.8745 108.548 36.2402 112.543 36.2402C116.483 36.2402 119.58 32.8745 119.58 28.2533Z" fill="#FF8D75"/>
<path d="M133.732 1.79346V40.6521H128.085V1.79346H133.732Z" fill="#FF8D75"/>
<path d="M155.735 32.5696L160.228 35.5826C158.778 37.7408 155.283 41.4593 149.245 41.4593C141.756 41.4593 136.163 35.6364 136.163 28.1995C136.163 20.3142 141.803 14.9397 148.597 14.9397C155.438 14.9397 158.784 20.4158 159.878 23.375L160.478 24.8815L142.855 32.2228C144.204 34.8832 146.302 36.2402 149.245 36.2402C152.193 36.2402 154.237 34.7815 155.735 32.5696ZM141.904 27.7989L153.684 22.8788C153.037 21.2228 151.087 20.069 148.793 20.069C145.851 20.069 141.756 22.6815 141.904 27.7989V27.7989Z" fill="#FF8D75"/>
<path d="M20.9751 24.756V19.1305H39.8223C40.0066 20.1109 40.1017 21.2707 40.1017 22.5261C40.1017 26.7468 38.9545 31.9658 35.2576 35.6843C31.6617 39.4506 27.0673 41.4593 20.981 41.4593C9.70002 41.4593 0.213989 32.2169 0.213989 20.8701C0.213989 9.5234 9.70002 0.281006 20.981 0.281006C27.2218 0.281006 31.6677 2.74405 35.008 5.95438L31.0614 9.92394C28.6661 7.66416 25.4209 5.90655 20.9751 5.90655C12.7372 5.90655 6.29432 12.5843 6.29432 20.8701C6.29432 29.156 12.7372 35.8337 20.9751 35.8337C26.3184 35.8337 29.3615 33.6756 31.311 31.7147C32.892 30.1245 33.9322 27.8527 34.3423 24.75L20.9751 24.756V24.756Z" fill="#FF8D75"/>
</svg>
