<svg width="51" height="50" viewBox="0 0 51 50" fill="none" xmlns="http://www.w3.org/2000/svg">
<path d="M25.0128 0.378784C14.7317 0.378784 11.7249 0.38939 11.1404 0.437875C9.03059 0.613254 7.71771 0.945451 6.28741 1.65757C5.18514 2.20492 4.31582 2.83939 3.45786 3.72878C1.89536 5.35075 0.948393 7.34621 0.60559 9.71818C0.438923 10.8697 0.390438 11.1045 0.38059 16.9864C0.376802 18.947 0.38059 21.5273 0.38059 24.9883C0.38059 35.261 0.391953 38.2648 0.441196 38.8481C0.61165 40.9011 0.93362 42.1928 1.61544 43.6057C2.91847 46.3102 5.40711 48.3405 8.33892 49.0981C9.35408 49.3595 10.4753 49.5034 11.9147 49.5716C12.5245 49.5981 18.7404 49.617 24.9601 49.617C31.1798 49.617 37.3995 49.6095 37.9942 49.5792C39.6609 49.5008 40.6287 49.3708 41.6988 49.0943C44.6495 48.3329 47.0927 46.333 48.4223 43.5905C49.0908 42.2117 49.4298 40.8708 49.5832 38.925C49.6166 38.5008 49.6306 31.7367 49.6306 24.9818C49.6306 18.2258 49.6154 11.4742 49.5821 11.05C49.4268 9.07272 49.0878 7.74318 48.3976 6.33788C47.8313 5.1875 47.2026 4.32841 46.2897 3.45C44.6605 1.89394 42.6681 0.946966 40.2938 0.604542C39.1435 0.438254 38.9143 0.389011 33.0279 0.378784H25.0128Z" fill="#FF8D75"/>
<path d="M25.0128 0.378784C14.7317 0.378784 11.7249 0.38939 11.1404 0.437875C9.03059 0.613254 7.71771 0.945451 6.28741 1.65757C5.18514 2.20492 4.31582 2.83939 3.45786 3.72878C1.89536 5.35075 0.948393 7.34621 0.60559 9.71818C0.438923 10.8697 0.390438 11.1045 0.38059 16.9864C0.376802 18.947 0.38059 21.5273 0.38059 24.9883C0.38059 35.261 0.391953 38.2648 0.441196 38.8481C0.61165 40.9011 0.93362 42.1928 1.61544 43.6057C2.91847 46.3102 5.40711 48.3405 8.33892 49.0981C9.35408 49.3595 10.4753 49.5034 11.9147 49.5716C12.5245 49.5981 18.7404 49.617 24.9601 49.617C31.1798 49.617 37.3995 49.6095 37.9942 49.5792C39.6609 49.5008 40.6287 49.3708 41.6988 49.0943C44.6495 48.3329 47.0927 46.333 48.4223 43.5905C49.0908 42.2117 49.4298 40.8708 49.5832 38.925C49.6166 38.5008 49.6306 31.7367 49.6306 24.9818C49.6306 18.2258 49.6154 11.4742 49.5821 11.05C49.4268 9.07272 49.0878 7.74318 48.3976 6.33788C47.8313 5.1875 47.2026 4.32841 46.2897 3.45C44.6605 1.89394 42.6681 0.946966 40.2938 0.604542C39.1435 0.438254 38.9143 0.389011 33.0279 0.378784H25.0128Z" fill="#FF8D75"/>
<path d="M25.0016 6.81824C20.0637 6.81824 19.444 6.83983 17.5046 6.92809C15.569 7.01672 14.2478 7.32316 13.0917 7.77278C11.8959 8.23718 10.8815 8.85839 9.87089 9.86937C8.85953 10.88 8.23831 11.8944 7.7724 13.0898C7.32165 14.2463 7.01483 15.5679 6.92771 17.5027C6.84096 19.4421 6.81824 20.0622 6.81824 25.0001C6.81824 29.9379 6.84021 30.5557 6.92809 32.4951C7.0171 34.4307 7.32354 35.752 7.77278 36.908C8.23756 38.1038 8.85877 39.1182 9.86975 40.1288C10.88 41.1402 11.8944 41.7629 13.0894 42.2273C14.2463 42.677 15.5679 42.9834 17.5031 43.072C19.4425 43.1603 20.0618 43.1819 24.9993 43.1819C29.9376 43.1819 30.5554 43.1603 32.4948 43.072C34.4304 42.9834 35.7531 42.677 36.9099 42.2273C38.1054 41.7629 39.1182 41.1402 40.1285 40.1288C41.1398 39.1182 41.761 38.1038 42.2269 36.9084C42.6739 35.752 42.9807 34.4304 43.0716 32.4955C43.1588 30.5561 43.1815 29.9379 43.1815 25.0001C43.1815 20.0622 43.1588 19.4425 43.0716 17.5031C42.9807 15.5675 42.6739 14.2463 42.2269 13.0902C41.761 11.8944 41.1398 10.88 40.1285 9.86937C39.1171 8.85801 38.1057 8.2368 36.9088 7.77278C35.7497 7.32316 34.4277 7.01672 32.4921 6.92809C30.5527 6.83983 29.9353 6.81824 24.9959 6.81824H25.0016ZM23.3705 10.0948C23.8546 10.094 24.3948 10.0948 25.0016 10.0948C29.8561 10.0948 30.4315 10.1122 32.3485 10.1993C34.1213 10.2804 35.0834 10.5766 35.7243 10.8254C36.5728 11.155 37.1777 11.5489 37.8137 12.1853C38.4501 12.8216 38.844 13.4277 39.1743 14.2762C39.4232 14.9163 39.7198 15.8785 39.8004 17.6512C39.8876 19.5679 39.9065 20.1436 39.9065 24.9959C39.9065 29.8482 39.8876 30.4239 39.8004 32.3406C39.7194 34.1133 39.4232 35.0754 39.1743 35.7156C38.8448 36.5641 38.4501 37.1682 37.8137 37.8042C37.1773 38.4406 36.5732 38.8345 35.7243 39.1641C35.0841 39.4141 34.1213 39.7095 32.3485 39.7906C30.4319 39.8777 29.8561 39.8967 25.0016 39.8967C20.1466 39.8967 19.5713 39.8777 17.6546 39.7906C15.8819 39.7088 14.9198 39.4126 14.2785 39.1637C13.43 38.8341 12.8239 38.4402 12.1876 37.8038C11.5512 37.1675 11.1573 36.5629 10.8269 35.7141C10.5781 35.0739 10.2815 34.1118 10.2008 32.3391C10.1137 30.4224 10.0963 29.8466 10.0963 24.9913C10.0963 20.136 10.1137 19.5633 10.2008 17.6466C10.2819 15.8739 10.5781 14.9118 10.8269 14.2709C11.1565 13.4224 11.5512 12.8163 12.1876 12.18C12.8239 11.5436 13.43 11.1497 14.2785 10.8194C14.9194 10.5694 15.8819 10.2739 17.6546 10.1925C19.3319 10.1167 19.9819 10.094 23.3705 10.0902V10.0948ZM34.7069 13.1137C33.5023 13.1137 32.5251 14.0898 32.5251 15.2948C32.5251 16.4993 33.5023 17.4766 34.7069 17.4766C35.9114 17.4766 36.8887 16.4993 36.8887 15.2948C36.8887 14.0902 35.9114 13.1129 34.7069 13.1129V13.1137ZM25.0016 15.6629C19.8451 15.6629 15.6644 19.8436 15.6644 25.0001C15.6644 30.1565 19.8451 34.3353 25.0016 34.3353C30.158 34.3353 34.3372 30.1565 34.3372 25.0001C34.3372 19.8436 30.1576 15.6629 25.0012 15.6629H25.0016ZM25.0016 18.9395C28.3485 18.9395 31.0622 21.6527 31.0622 25.0001C31.0622 28.347 28.3485 31.0607 25.0016 31.0607C21.6542 31.0607 18.941 28.347 18.941 25.0001C18.941 21.6527 21.6542 18.9395 25.0016 18.9395V18.9395Z" fill="white"/>
</svg>
