<svg width="158" height="158" viewBox="0 0 158 158" fill="none" xmlns="http://www.w3.org/2000/svg">
<rect width="858" height="402" transform="translate(-226 -240)" fill="white"/>
<path d="M137.985 79.2327C137.985 110.032 112.873 135 81.8965 135C50.9194 135 21 110.032 21 79.2328C21 48.4334 46.1118 23.4655 77.0888 23.4655C114.169 15.7016 145.054 39.4373 137.985 79.2327Z" fill="#FF8D75"/>
<g clip-path="url(#clip0)">
<path d="M111.834 43.9999C95.4356 43.96 80.1614 52.3266 71.3659 66.1664H61.1075C58.1653 66.1692 55.358 67.4042 53.3671 69.5706L43.3081 80.5445C42.9566 80.9273 42.9008 81.4964 43.1713 81.9407C43.4419 82.3845 43.9734 82.5959 44.4747 82.4591L56.2393 79.2508C56.5771 79.158 56.9388 79.2223 57.2236 79.4257L61.1184 82.2068L58.351 86.5384C58.0565 86.9999 58.1225 87.6043 58.5093 87.9911L59.6982 89.1799L51.813 93.122C51.7629 93.1573 51.7162 93.196 51.6729 93.2387L51.6564 93.2165C46.2304 97.0999 43.0084 103.36 43.001 110.033V112.833C43.001 113.477 43.5234 113.999 44.1677 113.999H46.9675C53.6411 113.993 59.9022 110.771 63.7861 105.344L63.7644 105.327C63.8066 105.284 63.8459 105.237 63.8806 105.188L67.8232 97.3021L69.0115 98.491C69.3864 98.8658 69.9668 98.941 70.4249 98.6744L74.9172 96.0529L77.5763 99.7756C77.7803 100.061 77.8446 100.423 77.7523 100.762L74.544 112.526C74.4073 113.027 74.6187 113.559 75.0624 113.83C75.5062 114.1 76.0758 114.044 76.4587 113.693L87.4319 103.634C89.5984 101.642 90.8317 98.8351 90.8339 95.8928V86.6917C104.612 77.8529 112.961 62.6237 113 46.254V45.1666C113 44.5223 112.478 43.9999 111.834 43.9999V43.9999ZM58.5794 77.5265C57.7238 76.9158 56.6397 76.7221 55.6257 76.999L47.7554 79.1454L55.0868 71.148C56.6352 69.4624 58.8187 68.502 61.1075 68.4997H69.8751L62.3756 80.2386L58.5794 77.5265ZM46.9675 111.666H45.3343V110.033C45.3423 104.46 47.8784 99.1928 52.2295 95.7111L53.9025 97.3841C52.1622 98.9894 51.171 101.249 51.1676 103.616V104.666C51.1676 105.31 51.69 105.833 52.3343 105.833H53.3841C55.7528 105.83 58.012 104.839 59.6179 103.098L61.291 104.771C57.8092 109.122 52.5405 111.659 46.9675 111.666ZM55.5545 99.0361L57.9648 101.446C56.826 102.72 55.2093 103.464 53.5009 103.499C53.5368 101.791 54.2802 100.174 55.5545 99.0361ZM62.5146 102.697L54.3036 94.4857L56.7679 93.253L63.7445 100.23L62.5146 102.697ZM64.8479 98.0301L58.9702 92.1524L61.4345 90.9197L66.0778 95.5629L64.8479 98.0301ZM88.5006 95.8928C88.4983 98.1817 87.5379 100.366 85.8523 101.914L77.8549 109.246L80.0019 101.375C80.2793 100.361 80.0851 99.2754 79.4733 98.4198L76.9394 94.8731L88.5006 88.1289V95.8928ZM89.0595 85.0522H89.0515L88.8812 85.161C88.5849 85.3427 88.2978 85.5398 87.9993 85.7164L74.6585 93.5014L70.0267 96.2032L62.4958 88.6724L60.8256 87.0016L67.7703 76.1308L72.9923 67.9642L73.3341 67.423C78.285 59.6438 85.4809 53.5508 93.9699 49.95L107.328 63.3084C103.697 72.309 97.2995 79.923 89.0595 85.0522V85.0522ZM108.231 60.9164L96.3454 49.0283C100.945 47.3757 105.781 46.4711 110.667 46.3486C110.654 51.3046 109.831 56.2259 108.231 60.9164Z" fill="white"/>
<path d="M75.2987 68.6799L74.3246 70.2054L76.2905 71.4609L77.2646 69.9348C77.4418 69.6597 77.6144 69.3868 77.8024 69.1185L75.8655 67.8174C75.6747 68.0988 75.4844 68.3831 75.2987 68.6799Z" fill="white"/>
<path d="M65.3519 84.251L72.831 72.5376L74.7975 73.7931L67.319 85.5065L65.3519 84.251Z" fill="white"/>
<path d="M80.3339 67.3333C80.3339 72.4881 84.5129 76.6665 89.6671 76.6665C94.8219 76.6665 99.0004 72.4881 99.0004 67.3333C99.0004 62.179 94.8219 58 89.6671 58C84.5151 58.0057 80.3396 62.1813 80.3339 67.3333ZM96.6671 67.3333C96.6671 71.1995 93.5334 74.3332 89.6671 74.3332C85.8014 74.3332 82.6672 71.1995 82.6672 67.3333C82.6672 63.4676 85.8014 60.3333 89.6671 60.3333C93.5317 60.3373 96.6636 63.4693 96.6671 67.3333Z" fill="white"/>
<path d="M85.0005 67.3332H87.3338C87.3338 66.0446 88.3786 64.9998 89.6672 64.9998V62.6665C87.09 62.6665 85.0005 64.756 85.0005 67.3332Z" fill="white"/>
<path d="M74.5005 51V48.6667H76.8339V46.3333H74.5005V44H72.1672V46.3333H69.8339V48.6667H72.1672V51H74.5005Z" fill="white"/>
<path d="M55.8341 54.4998H58.1674V56.8331H55.8341V54.4998Z" fill="white"/>
<path d="M110.667 81.333H108.334V83.6663H106V85.9997H108.334V88.333H110.667V85.9997H113V83.6663H110.667V81.333Z" fill="white"/>
<path d="M95.5004 103.5V105.833H93.1671V108.166H95.5004V110.5H97.8338V108.166H100.167V105.833H97.8338V103.5H95.5004Z" fill="white"/>
<path d="M99.0004 90.6663H101.334V92.9996H99.0004V90.6663Z" fill="white"/>
<path d="M47.6675 61.4998H50.0008V63.8331H47.6675V61.4998Z" fill="white"/>
</g>
<path d="M11.1545 -39.8093C-10.6239 -18.0308 -46.0356 -18.1326 -67.9397 -40.0366C-89.8437 -61.9407 -93.3451 -100.752 -71.5666 -122.53C-49.7881 -144.309 -14.3765 -144.207 7.5276 -122.303C39.2372 -101.573 44.2926 -62.9504 11.1545 -39.8093Z" fill="#FF8D75"/>
<path d="M87.6513 -37.3017C62.7691 -55.4531 57.3975 -90.4552 75.6537 -115.481C93.9098 -140.507 122.196 -151.271 147.078 -133.12C171.961 -114.968 186.85 -78.6584 168.594 -53.6327C153.013 -19.1006 115.635 -8.1376 87.6513 -37.3017Z" fill="#FF8D75"/>
<defs>
<clipPath id="clip0">
<rect width="70" height="70" fill="white" transform="translate(43 44)"/>
</clipPath>
</defs>
</svg>
