<svg width="240" height="50" viewBox="0 0 240 50" fill="none" xmlns="http://www.w3.org/2000/svg">
<path d="M84.7152 28.7984L83.2848 32.7519H83.1656C82.9272 31.8604 82.4901 30.5038 81.7748 28.8759L74.106 10.0775H66.596V40.0387H71.5629V21.5503C71.5629 20.3875 71.5629 19.0697 71.5232 17.4418C71.4835 16.6279 71.404 16.0077 71.3643 15.5426H71.4835C71.7219 16.7054 72 17.5581 72.1987 18.1007L81.4172 39.9612H84.9139L94.053 17.9069C94.2517 17.4031 94.4503 16.3953 94.649 15.5426H94.7682C94.649 17.7519 94.5695 19.7286 94.5298 20.9302V39.9224H99.8146V9.99995H92.5828L84.7152 28.7984V28.7984ZM104.821 18.4496H109.987V39.9224H104.821V18.4496ZM107.444 9.3798C106.57 9.3798 105.854 9.68987 105.258 10.2325C104.662 10.7751 104.344 11.4728 104.344 12.3255C104.344 13.1395 104.662 13.8372 105.258 14.3798C105.854 14.9224 106.57 15.1938 107.444 15.1938C108.318 15.1938 109.073 14.8837 109.629 14.3798C110.225 13.8372 110.543 13.1395 110.543 12.3255C110.543 11.5116 110.225 10.8139 109.629 10.2325C109.113 9.68987 108.358 9.3798 107.444 9.3798V9.3798ZM128.305 18.2558C127.351 18.062 126.358 17.9457 125.404 17.9457C123.06 17.9457 120.914 18.4496 119.126 19.4573C117.338 20.4651 115.907 21.8604 114.993 23.6046C114.04 25.3876 113.563 27.4418 113.563 29.8062C113.563 31.8604 114.04 33.6821 114.954 35.3488C115.868 36.9767 117.139 38.2945 118.848 39.186C120.477 40.0775 122.384 40.5426 124.53 40.5426C126.993 40.5426 129.099 40.0387 130.768 39.1085L130.808 39.0697V34.4186L130.609 34.5736C129.854 35.1162 128.98 35.5813 128.106 35.8527C127.192 36.1627 126.358 36.3178 125.642 36.3178C123.576 36.3178 121.947 35.7364 120.795 34.4573C119.603 33.217 119.007 31.5116 119.007 29.3798C119.007 27.1705 119.603 25.4263 120.834 24.1472C122.066 22.8682 123.695 22.2093 125.682 22.2093C127.351 22.2093 129.06 22.7519 130.609 23.8372L130.808 23.9922V19.0697L130.768 19.031C130.093 18.7596 129.338 18.4496 128.305 18.2558V18.2558ZM145.351 18.1007C144.079 18.1007 142.887 18.4883 141.854 19.3023C140.98 20 140.384 21.0077 139.868 22.2093H139.828V18.4496H134.662V39.9224H139.828V28.9534C139.828 27.093 140.225 25.5426 141.099 24.4186C141.974 23.2558 143.086 22.6744 144.437 22.6744C144.914 22.6744 145.391 22.7907 145.987 22.8682C146.543 23.0232 146.94 23.1782 147.219 23.372L147.417 23.5271V18.4883L147.298 18.4496C146.94 18.217 146.225 18.1007 145.351 18.1007V18.1007ZM159.417 17.9844C155.801 17.9844 152.901 19.031 150.874 21.0852C148.808 23.1395 147.815 25.9689 147.815 29.5348C147.815 32.8682 148.848 35.5813 150.834 37.5581C152.821 39.4961 155.523 40.5038 158.901 40.5038C162.437 40.5038 165.258 39.4573 167.285 37.3643C169.351 35.2713 170.344 32.4806 170.344 29.031C170.344 25.6201 169.391 22.9069 167.444 20.9302C165.576 18.9534 162.834 17.9844 159.417 17.9844V17.9844ZM163.55 34.4961C162.596 35.6976 161.086 36.279 159.219 36.279C157.351 36.279 155.841 35.6976 154.768 34.4186C153.695 33.217 153.179 31.4728 153.179 29.2635C153.179 26.9767 153.735 25.2325 154.768 23.9922C155.841 22.7519 157.311 22.1317 159.179 22.1317C161.007 22.1317 162.437 22.7131 163.47 23.9147C164.503 25.1162 165.06 26.8604 165.06 29.1472C164.98 31.4728 164.543 33.2945 163.55 34.4961V34.4961ZM181.868 27.3643C180.238 26.7054 179.205 26.2015 178.728 25.7751C178.331 25.3875 178.132 24.8449 178.132 24.1472C178.132 23.5658 178.371 22.9844 178.967 22.5969C179.563 22.2093 180.238 22.0155 181.232 22.0155C182.106 22.0155 183.02 22.1705 183.894 22.4031C184.768 22.6356 185.563 22.9844 186.199 23.4496L186.397 23.6046V18.8759L186.278 18.8372C185.682 18.6046 184.887 18.372 183.934 18.1782C182.98 18.0232 182.106 17.9457 181.391 17.9457C178.927 17.9457 176.901 18.5271 175.311 19.8062C173.722 21.0077 172.967 22.6356 172.967 24.5348C172.967 25.5426 173.126 26.4341 173.483 27.1705C173.841 27.9069 174.358 28.6046 175.073 29.186C175.788 29.7286 176.821 30.3488 178.252 30.9302C179.444 31.4341 180.358 31.8217 180.914 32.1317C181.47 32.4418 181.828 32.7907 182.106 33.062C182.305 33.372 182.424 33.7596 182.424 34.2635C182.424 35.6976 181.311 36.3953 179.046 36.3953C178.172 36.3953 177.258 36.2403 176.185 35.8914C175.113 35.5426 174.119 35.0387 173.285 34.4573L173.086 34.3023V39.2248L173.205 39.2635C173.96 39.6124 174.874 39.8449 175.987 40.1162C177.099 40.31 178.093 40.4651 178.967 40.4651C181.629 40.4651 183.815 39.8837 185.364 38.6046C186.954 37.3643 187.788 35.7751 187.788 33.7209C187.788 32.2868 187.391 31.0077 186.517 30.0387C185.364 29.1085 183.934 28.1395 181.868 27.3643V27.3643ZM201.417 17.9844C197.801 17.9844 194.901 19.031 192.874 21.0852C190.848 23.1395 189.815 25.9689 189.815 29.5348C189.815 32.8682 190.848 35.5813 192.834 37.5581C194.821 39.4961 197.523 40.5038 200.901 40.5038C204.437 40.5038 207.258 39.4573 209.285 37.3643C211.351 35.2713 212.344 32.4806 212.344 29.031C212.344 25.6201 211.391 22.9069 209.444 20.9302C207.576 18.9534 204.834 17.9844 201.417 17.9844V17.9844ZM205.51 34.4961C204.556 35.6976 203.046 36.279 201.179 36.279C199.272 36.279 197.801 35.6976 196.728 34.4186C195.656 33.217 195.139 31.4728 195.139 29.2635C195.139 26.9767 195.695 25.2325 196.728 23.9922C197.801 22.7519 199.272 22.1317 201.139 22.1317C202.927 22.1317 204.397 22.7131 205.43 23.9147C206.464 25.1162 207.02 26.8604 207.02 29.1472C207.02 31.4728 206.503 33.2945 205.51 34.4961V34.4961ZM239.96 22.5969V18.4496H234.755V12.093L234.596 12.1317L229.669 13.5658L229.55 13.6046V18.4496H221.762V15.7364C221.762 14.4961 222.079 13.5271 222.636 12.9069C223.192 12.2868 224.026 11.9767 225.06 11.9767C225.775 11.9767 226.53 12.1317 227.364 12.4806L227.563 12.5969V8.21701L227.444 8.17825C226.728 7.94569 225.775 7.79065 224.543 7.79065C222.993 7.79065 221.642 8.13949 220.411 8.72088C219.179 9.3798 218.265 10.2713 217.589 11.4728C216.914 12.6356 216.556 13.9534 216.556 15.4651V18.4496H212.94V22.5581H216.556V39.9224H221.762V22.5969H229.55V33.6434C229.55 38.1782 231.735 40.4651 236.106 40.4651C236.821 40.4651 237.576 40.3488 238.291 40.2325C239.046 40.0775 239.603 39.8837 239.921 39.7286L239.96 39.6899V35.5426L239.762 35.6976C239.444 35.8914 239.166 36.0465 238.689 36.1627C238.291 36.279 237.934 36.3178 237.656 36.3178C236.622 36.3178 235.907 36.0852 235.391 35.5038C234.914 34.9612 234.675 34.0697 234.675 32.7519V22.5969H239.96V22.5969Z" fill="#FF8D75"/>
<path d="M0 0H24.3576V23.7597H0V0Z" fill="#FF8D75"/>
<path d="M26.9007 0H51.2583V23.7597H26.9007V0Z" fill="#FF8D75"/>
<path d="M0 26.2402H24.3576V49.9999H0V26.2402Z" fill="#FF8D75"/>
<path d="M26.9007 26.2402H51.2583V49.9999H26.9007V26.2402Z" fill="#FF8D75"/>
</svg>
