<svg width="159" height="159" viewBox="0 0 159 159" fill="none" xmlns="http://www.w3.org/2000/svg">
<path d="M45.6513 123.698C20.7691 105.547 15.3975 70.5448 33.6537 45.519C51.9098 20.4933 80.1961 9.72891 105.078 27.8804C129.961 46.0318 144.85 82.3416 126.594 107.367C111.013 141.899 73.6353 152.862 45.6513 123.698Z" fill="#FF8D75"/>
<g clip-path="url(#clip0)">
<path d="M110.633 52.3578H109.466V54.6907H110.633C112.566 54.6907 114.132 56.2576 114.132 58.1901V89.6849H108.3V92.0178H114.132V94.3508C114.132 96.2833 112.566 97.8502 110.633 97.8502H108.3V100.183H110.633C113.853 100.179 116.462 97.5705 116.465 94.3508V58.1901C116.462 54.971 113.853 52.3618 110.633 52.3578Z" fill="white"/>
<path d="M91.7944 107.95L89.6027 108.748L90.3027 110.681H72.6387L76.7345 99.4159C76.8644 99.0583 76.812 98.6596 76.5938 98.348C76.3757 98.0365 76.0191 97.8508 75.6387 97.8502H52.3092C50.3767 97.8502 48.8098 96.2833 48.8098 94.3508L48.8018 92.0178H82.6375V89.6849H48.7984L48.8098 58.1901C48.8098 56.2576 50.3767 54.6907 52.3092 54.6907H53.4757V52.3578H52.3092C49.09 52.3618 46.4808 54.971 46.4768 58.1901L46.4655 90.8514L46.4768 94.3508C46.4808 97.5705 49.09 100.179 52.3092 100.183H73.9732L70.1566 110.681H66.3069V113.014H96.6351V110.681H92.786L91.7944 107.95Z" fill="white"/>
<path d="M101.301 43.0259H61.641C58.4218 43.0299 55.8126 45.6391 55.8086 48.8582V87.3518H58.1415V48.8582C58.1415 46.9257 59.7084 45.3588 61.641 45.3588H101.301C103.234 45.3588 104.8 46.9257 104.8 48.8582V86.1854H107.133V48.8582C107.13 45.6391 104.521 43.0299 101.301 43.0259Z" fill="white"/>
<path d="M61.641 47.6918H63.9739V50.0247H61.641V47.6918Z" fill="white"/>
<path d="M66.3069 47.6918H68.6398V50.0247H66.3069V47.6918Z" fill="white"/>
<path d="M70.9728 47.6918H73.3057V50.0247H70.9728V47.6918Z" fill="white"/>
<path d="M61.6331 52.3578H101.293V54.6907H61.6331V52.3578Z" fill="white"/>
<path d="M93.9457 78.5509C94.955 76.5819 95.4773 74.3999 95.4687 72.1877C95.4687 64.457 89.2018 58.1901 81.4711 58.1901C73.7409 58.1901 67.4734 64.457 67.4734 72.1877C67.4734 79.9185 73.7409 86.1854 81.4711 86.1854C81.9005 86.1854 82.3254 86.166 82.7452 86.1273L82.5305 83.8035C82.1807 83.8354 81.8305 83.8525 81.4711 83.8525C75.0293 83.8525 69.8063 78.6301 69.8063 72.1877C69.8063 65.7454 75.0293 60.523 81.4711 60.523C87.9134 60.523 93.1358 65.7454 93.1358 72.1877C93.1432 74.0309 92.7086 75.8489 91.8679 77.4893L93.9457 78.5509Z" fill="white"/>
<path d="M77.406 64.1893C77.0461 63.9729 76.5967 63.9672 76.231 64.1739C75.8654 64.3807 75.6392 64.7686 75.6387 65.1889V79.1866C75.6392 79.6069 75.8654 79.9948 76.231 80.2015C76.5967 80.4089 77.0461 80.4026 77.406 80.1862L89.0708 73.1873C89.4216 72.9766 89.6363 72.5973 89.6363 72.1877C89.6363 71.7788 89.4216 71.3989 89.0708 71.1881L77.406 64.1893ZM77.9716 77.1253V67.2502L86.2036 72.1877L77.9716 77.1253Z" fill="white"/>
<path d="M103.051 88.6899C102.034 88.523 100.993 88.8101 100.206 89.4764L100.135 89.5357C98.8075 88.3441 96.7964 88.3441 95.4687 89.5357C94.5039 88.7087 93.1773 88.4455 91.9693 88.8419V81.6443C91.9915 79.9032 90.7629 78.3967 89.0531 78.0669C88.0376 77.8955 86.997 78.1802 86.2104 78.8455C85.4238 79.5107 84.9699 80.4893 84.9705 81.5196V97.0819L81.8749 95.2234C80.93 94.6532 79.7572 94.6088 78.7719 95.1066L78.5902 95.1989C77.5775 95.7041 76.9043 96.7031 76.8154 97.8308C76.7266 98.9586 77.2352 100.051 78.1562 100.708L85.4597 105.926C85.6574 106.067 85.8943 106.143 86.1369 106.143H104.8C105.445 106.143 105.967 105.621 105.967 104.976V92.2679C105.99 90.5262 104.761 89.0191 103.051 88.6899V88.6899ZM103.634 103.807H86.5106L79.5117 98.8082C79.2782 98.6402 79.1392 98.3708 79.1381 98.0837C79.1375 97.7448 79.3295 97.4356 79.6331 97.2858L79.8159 97.1946C80.0881 97.0562 80.4122 97.0682 80.6736 97.2265L85.5366 100.143C85.8971 100.359 86.346 100.365 86.7122 100.158C87.0779 99.9502 87.304 99.5623 87.3034 99.1414V81.5196C87.3034 81.1767 87.4543 80.8515 87.7152 80.6299C87.9795 80.4033 88.332 80.3081 88.6743 80.3708C89.2564 80.5132 89.6586 81.0452 89.6363 81.6443V92.1426C89.6363 92.7868 90.1586 93.3091 90.8028 93.3091C91.4476 93.3091 91.9693 92.7868 91.9693 92.1426C91.9693 91.4984 92.4916 90.9761 93.1358 90.9761C93.7805 90.9761 94.3022 91.4984 94.3022 92.1426C94.3022 92.7868 94.8245 93.3091 95.4687 93.3091C96.1135 93.3091 96.6352 92.7868 96.6352 92.1426C96.6352 91.4984 97.1575 90.9761 97.8016 90.9761C98.4464 90.9761 98.9681 91.4984 98.9681 92.1426C98.9681 92.7868 99.4904 93.3091 100.135 93.3091C100.779 93.3091 101.301 92.7868 101.301 92.1426C101.302 91.8003 101.452 91.4756 101.713 91.2541C101.977 91.0268 102.33 90.9311 102.672 90.9938C103.254 91.1362 103.656 91.6687 103.634 92.2679V103.807Z" fill="white"/>
</g>
<defs>
<clipPath id="clip0">
<rect width="70" height="70" fill="white" transform="translate(46.4655 43.0144)"/>
</clipPath>
</defs>
</svg>
