<svg width="158" height="158" viewBox="0 0 158 158" fill="none" xmlns="http://www.w3.org/2000/svg">
<path d="M45.0533 123.698C20.171 105.547 14.7995 70.5448 33.0556 45.5191C51.3117 20.4933 79.598 9.72895 104.48 27.8804C129.363 46.0319 144.252 82.3416 125.996 107.367C112.04 136.127 75.2821 144.891 45.0533 123.698Z" fill="#FF8D75"/>
<g clip-path="url(#clip0)">
<path d="M111.069 101V62.5001C111.065 59.2798 108.456 56.6707 105.236 56.6667H80.7358V59.0001H105.236C107.169 59.0001 108.736 60.5672 108.736 62.5001V101C108.736 102.933 107.169 104.5 105.236 104.5H100.569V106.833H105.236C108.456 106.829 111.065 104.22 111.069 101Z" fill="white"/>
<path d="M50.4026 75.3335V101C50.4066 104.22 53.0156 106.83 56.2359 106.833H66.7359V104.5H56.2359C54.3031 104.5 52.7359 102.933 52.7359 101V75.3335H50.4026Z" fill="white"/>
<path d="M93.5693 61.3335H95.9027V63.6668H93.5693V61.3335Z" fill="white"/>
<path d="M98.2358 61.3335H100.569V63.6668H98.2358V61.3335Z" fill="white"/>
<path d="M102.903 61.3335H105.236V63.6668H102.903V61.3335Z" fill="white"/>
<path d="M80.7358 66.0001H105.236V68.3335H80.7358V66.0001Z" fill="white"/>
<path d="M51.5692 73.0001H59.4009L68.4511 78.6563C68.8464 78.9035 69.3512 78.8916 69.7345 78.6255C70.1179 78.3595 70.3059 77.8907 70.2125 77.4332L69.3261 73.0001H72.5692C75.7895 72.9961 78.3985 70.3871 78.4025 67.1668V50.8335C78.3985 47.6132 75.7895 45.0041 72.5692 45.0001H51.5692C48.3489 45.0041 45.7398 47.6132 45.7358 50.8335V67.1668C45.7398 70.3871 48.3489 72.9961 51.5692 73.0001ZM48.0692 50.8335C48.0692 48.9006 49.6363 47.3335 51.5692 47.3335H72.5692C74.502 47.3335 76.0692 48.9006 76.0692 50.8335V67.1668C76.0692 69.0996 74.502 70.6668 72.5692 70.6668H67.9025C67.5522 70.6668 67.2201 70.824 66.9985 71.0957C66.7769 71.3669 66.6891 71.7235 66.7592 72.067L67.3949 75.2497L60.3539 70.844C60.1688 70.7283 59.9546 70.6668 59.7358 70.6668H51.5692C49.6363 70.6668 48.0692 69.0996 48.0692 67.1668V50.8335Z" fill="white"/>
<path d="M60.023 66.0001H60.9026V68.3334H63.2359V66.0001H64.1155C66.0369 66.012 67.6627 64.5828 67.8974 62.6755C68.1321 60.7683 66.9011 58.9875 65.0338 58.5335L59.667 57.1943C58.9566 57.0148 58.4906 56.3346 58.5795 55.6072C58.6684 54.8797 59.2842 54.3317 60.0173 54.3289H64.1098C64.4971 54.3277 64.8686 54.481 65.1426 54.7544C65.4166 55.0284 65.5704 55.3998 65.5692 55.7872V56.6667H67.9026V55.7872C67.9009 53.6965 66.2061 52.0018 64.1155 52.0001H63.2359V49.6667H60.9026V52.0001H60.023C58.1015 51.9881 56.4757 53.4174 56.241 55.3246C56.0063 57.2319 57.2374 59.0126 59.1047 59.4666L64.4715 60.8059C65.1819 60.9854 65.6478 61.6655 65.559 62.393C65.4701 63.1204 64.8543 63.6685 64.1212 63.6713H60.023C59.6368 63.6713 59.2665 63.5175 58.9936 63.2435C58.7208 62.9701 58.5681 62.5992 58.5692 62.213V61.3334H56.2359V62.213C56.2376 64.3036 57.9324 65.9984 60.023 66.0001Z" fill="white"/>
<path d="M68.4369 82.8792C66.7706 84.5488 66.2739 87.0582 67.1785 89.2366C68.0826 91.4155 70.2103 92.8346 72.5692 92.8334H74.9026V90.5001H72.5692C70.6364 90.5001 69.0692 88.9329 69.0692 87.0001C69.0692 85.0672 70.6364 83.5001 72.5692 83.5001H88.9026C90.8354 83.5001 92.4026 85.0672 92.4026 87.0001C92.4026 88.9329 90.8354 90.5001 88.9026 90.5001H86.5692V92.8334H88.9026C92.124 92.8334 94.7359 90.2215 94.7359 87.0001C94.7359 83.7786 92.124 81.1667 88.9026 81.1667H72.5692C71.0192 81.1679 69.5335 81.7843 68.4369 82.8792Z" fill="white"/>
<path d="M88.9026 74.1667H91.2359V78.8334H88.9026V74.1667Z" fill="white"/>
<path d="M93.9116 79.1753L97.4116 75.6753L99.0614 77.325L95.5614 80.8256L93.9116 79.1753Z" fill="white"/>
<path d="M97.0693 83.5001H101.736V85.8335H97.0693V83.5001Z" fill="white"/>
<path d="M70.4204 109.565L77.7246 114.782C77.9222 114.924 78.1592 114.999 78.4024 115H97.0691C97.7134 115 98.2358 114.478 98.2358 113.833V101.125C98.2574 99.3834 97.0292 97.8766 95.3191 97.5468C94.3011 97.3782 93.2604 97.6653 92.4737 98.3329C92.4503 98.3517 92.4281 98.3716 92.4047 98.3927C91.0774 97.201 89.0654 97.201 87.7381 98.3927C86.7731 97.565 85.4457 97.3013 84.2381 97.6983V90.5001C84.2603 88.7586 83.0315 87.2513 81.3214 86.922C80.3051 86.75 79.2649 87.0348 78.4782 87.7008C77.6909 88.3661 77.2375 89.3448 77.2381 90.3753V105.94L74.142 104.083C73.1963 103.511 72.0239 103.467 71.0384 103.966L70.8539 104.057C69.8421 104.563 69.1699 105.563 69.0816 106.691C68.9934 107.819 69.5021 108.911 70.4226 109.569L70.4204 109.565ZM71.8969 106.14L72.0803 106.05C72.3526 105.911 72.6768 105.924 72.9377 106.082L77.8015 108.999C78.1621 109.215 78.6104 109.221 78.9761 109.015C79.3424 108.808 79.5685 108.42 79.5691 108V90.3753C79.5691 90.0329 79.7201 89.7077 79.981 89.4861C80.2447 89.2588 80.5974 89.1625 80.9397 89.2252C81.5225 89.3676 81.9247 89.9008 81.9024 90.5001V101C81.9024 101.644 82.4248 102.167 83.0691 102.167C83.7134 102.167 84.2358 101.644 84.2358 101C84.2358 100.356 84.7582 99.8334 85.4024 99.8334C86.0467 99.8334 86.5691 100.356 86.5691 101C86.5691 101.644 87.0915 102.167 87.7358 102.167C88.3801 102.167 88.9024 101.644 88.9024 101C88.9024 100.356 89.4248 99.8334 90.0691 99.8334C90.7134 99.8334 91.2358 100.356 91.2358 101C91.2358 101.644 91.7582 102.167 92.4024 102.167C93.0467 102.167 93.5691 101.644 93.5691 101C93.5691 100.657 93.7195 100.332 93.981 100.11C94.2453 99.8835 94.5974 99.7884 94.9397 99.8511C95.5225 99.9935 95.9247 100.526 95.9024 101.125V112.667H78.7756L71.7756 107.667C71.5204 107.486 71.3785 107.184 71.4024 106.871C71.4264 106.558 71.6121 106.281 71.8924 106.14H71.8969Z" fill="white"/>
</g>
<defs>
<clipPath id="clip0">
<rect width="70" height="70" fill="white" transform="translate(43.4026 45.0001)"/>
</clipPath>
</defs>
</svg>
