<?xml version="1.0" standalone="no"?>
<!DOCTYPE svg PUBLIC "-//W3C//DTD SVG 20010904//EN"
 "http://www.w3.org/TR/2001/REC-SVG-20010904/DTD/svg10.dtd">
<svg version="1.0" xmlns="http://www.w3.org/2000/svg"
 width="270.000000pt" height="270.000000pt" viewBox="0 0 270.000000 270.000000"
 preserveAspectRatio="xMidYMid meet">
<metadata>
Created by potrace 1.11, written by Peter Selinger 2001-2013
</metadata>
<g transform="translate(0.000000,270.000000) scale(0.100000,-0.100000)"
fill="#000000" stroke="none">
<path d="M905 2460 c-122 -31 -149 -43 -238 -109 -47 -35 -122 -123 -144 -171
-46 -97 -46 -95 -50 -385 -2 -154 0 -525 4 -825 l8 -545 28 -55 c50 -98 134
-168 245 -204 78 -26 255 -19 337 14 83 32 183 132 213 213 20 54 22 76 22
312 0 242 1 256 20 275 28 28 112 28 140 0 19 -19 20 -33 20 -380 l0 -360 170
0 170 0 0 373 c0 204 -4 389 -9 410 -16 68 -71 147 -136 193 -33 24 -68 49
-77 56 -16 12 -18 43 -19 380 l-1 367 24 43 c12 23 43 56 68 73 41 27 52 30
125 30 70 0 85 -3 122 -28 24 -15 55 -46 70 -69 l28 -41 5 -411 5 -411 170 0
170 0 0 420 c0 472 -2 480 -74 592 -100 155 -302 263 -489 263 -116 0 -274
-51 -359 -116 -17 -13 -35 -24 -39 -24 -4 0 -30 15 -58 34 -69 45 -136 73
-224 91 -92 19 -158 18 -247 -5z m208 -301 c53 -14 122 -84 136 -136 8 -27 10
-157 9 -388 l-3 -347 -55 -30 c-76 -40 -135 -101 -173 -178 l-32 -65 -3 -265
c-4 -293 -4 -293 -68 -304 -23 -5 -46 -1 -69 10 l-35 16 -2 527 c-5 1067 -6
1021 20 1064 57 91 162 128 275 96z"/>
</g>
</svg>
