<svg width="159" height="159" viewBox="0 0 159 159" fill="none" xmlns="http://www.w3.org/2000/svg">
<path d="M46.0468 123.987C17.1835 103.818 11.8777 68.8497 34.0492 45.8076C51.5472 26.536 79.7288 16.5543 105.474 28.169C123.875 44.4288 141.942 81.6661 126.989 107.656C111.409 142.188 74.0308 153.151 46.0468 123.987Z" fill="#FF8D75"/>
<g clip-path="url(#clip0)">
<path d="M52.2289 84.1219V94.6219C52.2329 97.8422 54.8419 100.451 58.0622 100.455H75.0625L71.2453 110.955H67.3955V113.289H97.7287V110.955H93.879L92.9909 108.516L90.8 109.314L91.3958 110.955H73.7278L77.8243 99.6879C77.9541 99.3301 77.9017 98.9314 77.6841 98.6198C77.4659 98.3082 77.1093 98.1225 76.7288 98.1219H58.0622C56.1293 98.1219 54.5622 96.5548 54.5622 94.6219V92.2886H74.3955V89.9553H54.5622V84.1219H52.2289Z" fill="white"/>
<path d="M110.562 58.4553V94.6218C110.562 95.4746 110.251 96.2983 109.687 96.9375L111.437 98.4812C112.377 97.4154 112.895 96.0431 112.895 94.6218V58.4553C112.891 55.2355 110.282 52.6259 107.062 52.6219H76.7289V54.9553H107.062C108.995 54.9553 110.562 56.5224 110.562 58.4553Z" fill="white"/>
<path d="M94.2288 57.2887H96.5621V59.622H94.2288V57.2887Z" fill="white"/>
<path d="M98.8953 57.2887H101.229V59.622H98.8953V57.2887Z" fill="white"/>
<path d="M103.562 57.2887H105.895V59.622H103.562V57.2887Z" fill="white"/>
<path d="M76.7289 61.9552H105.896V64.2885H76.7289V61.9552Z" fill="white"/>
<path d="M77.8955 75.9552H80.2288V78.2885H77.8955V75.9552Z" fill="white"/>
<path d="M75.5621 68.9553H98.8955V73.6219H101.229V67.7886C101.229 67.1443 100.706 66.6219 100.062 66.6219H75.5621V68.9553Z" fill="white"/>
<path d="M75.5621 71.2886H77.8955V73.6219H75.5621V71.2886Z" fill="white"/>
<path d="M80.2289 71.2886H82.5622V73.6219H80.2289V71.2886Z" fill="white"/>
<path d="M61.5621 80.6219H63.8955V82.9553H61.5621V80.6219Z" fill="white"/>
<path d="M70.8955 80.6219H76.7288V82.9553H70.8955V80.6219Z" fill="white"/>
<path d="M61.5621 85.2886H74.3955V87.6219H61.5621V85.2886Z" fill="white"/>
<path d="M50.5102 68.5422C50.582 68.9552 50.8713 69.2976 51.2661 69.4372L47.6847 76.6007C47.5041 76.9624 47.5234 77.3919 47.7359 77.7354C47.949 78.0795 48.3244 78.2886 48.7288 78.2886H52.7712L54.7547 81.2696C54.9718 81.5949 55.3375 81.7897 55.7288 81.7886H55.8012C56.2165 81.7629 56.5868 81.518 56.773 81.146L60.706 73.2721L60.8797 73.398C61.287 73.692 61.8373 73.692 62.2446 73.398L62.4184 73.2721L66.3513 81.1397C66.537 81.5117 66.9067 81.7567 67.322 81.7829L67.3955 81.7886C67.7857 81.7886 68.1497 81.5937 68.3662 81.2696L70.3532 78.2886H74.3955C74.8 78.2886 75.1754 78.0795 75.3884 77.7354C75.6009 77.3919 75.6203 76.9624 75.4397 76.6007L71.8582 69.4372C72.253 69.2976 72.5424 68.9552 72.6142 68.5422L73.4482 63.38L76.5084 59.1377C76.8023 58.7304 76.8023 58.1801 76.5084 57.7728L73.4482 53.5311L72.6142 48.3682C72.5333 47.8726 72.1448 47.4841 71.6492 47.4032L66.4869 46.5693L62.2446 43.509C61.8373 43.2151 61.287 43.2151 60.8797 43.509L56.6375 46.5693L51.4752 47.4032C50.9796 47.4841 50.5905 47.8726 50.5102 48.3682L49.6762 53.5311L46.616 57.7728C46.322 58.1801 46.322 58.7304 46.616 59.1377L49.6762 63.38L50.5102 68.5422ZM55.5841 78.3028L54.3662 76.4748C54.1497 76.1501 53.7857 75.9552 53.3955 75.9552H50.6167L53.6627 69.8604L56.6375 70.3412L58.7891 71.8941L55.5841 78.3028ZM72.5077 75.9552H69.7288C69.3386 75.9552 68.9746 76.1501 68.7581 76.4748L67.5402 78.3028L64.3353 71.8941L66.4869 70.3412L69.4617 69.8604L72.5077 75.9552ZM51.7281 54.6733C51.8352 54.5263 51.9058 54.3565 51.9349 54.1771L52.6806 49.5736L57.284 48.828C57.4629 48.7989 57.6332 48.7283 57.7796 48.6217L61.5622 45.8936L65.3447 48.6217C65.4911 48.7283 65.6609 48.7989 65.8403 48.828L70.4438 49.5736L71.1895 54.1771C71.2185 54.3565 71.2891 54.5263 71.3962 54.6733L74.1238 58.4552L71.3962 62.2378C71.2891 62.3842 71.2185 62.5545 71.1895 62.7334L70.4438 67.3374L69.9379 67.42L65.8438 68.0825C65.6649 68.1116 65.4945 68.1822 65.3481 68.2893L61.5622 71.0168L57.7796 68.2893C57.6332 68.1822 57.4629 68.1116 57.284 68.0825L53.1899 67.42L52.684 67.3374L51.9383 62.7334C51.9093 62.5545 51.8386 62.3842 51.7315 62.2378L49.0006 58.4552L51.7281 54.6733Z" fill="white"/>
<path d="M61.5622 66.6219C66.0722 66.6219 69.7288 62.9658 69.7288 58.4552C69.7288 53.9452 66.0722 50.2886 61.5622 50.2886C57.0516 50.2886 53.3955 53.9452 53.3955 58.4552C53.4012 62.963 57.0544 66.6162 61.5622 66.6219ZM61.5622 52.6219C64.7836 52.6219 67.3955 55.2338 67.3955 58.4552C67.3955 61.6772 64.7836 64.2886 61.5622 64.2886C58.3407 64.2886 55.7288 61.6772 55.7288 58.4552C55.7328 55.2355 58.3419 52.6259 61.5622 52.6219Z" fill="white"/>
<path d="M60.3955 54.9552H62.7288V61.9552H60.3955V54.9552Z" fill="white"/>
<path d="M112.754 113.289C114.227 113.289 115.555 112.402 116.119 111.041C116.682 109.68 116.37 108.114 115.329 107.072L107.321 99.0648C111.393 91.7834 109.346 82.6044 102.567 77.7429C95.7868 72.8808 86.4364 73.8874 80.8469 80.0808C75.2568 86.2742 75.2101 95.6781 80.7392 101.926C86.2678 108.174 95.6074 109.273 102.435 104.478L110.179 112.222C110.864 112.903 111.789 113.286 112.754 113.289V113.289ZM93.0621 105.122C85.3301 105.122 79.0622 98.854 79.0622 91.122C79.0622 83.39 85.3301 77.122 93.0621 77.122C100.794 77.122 107.062 83.39 107.062 91.122C107.054 98.8506 100.791 105.113 93.0621 105.122ZM106.004 101.047L113.679 108.722C114.19 109.233 114.19 110.062 113.679 110.572C113.168 111.083 112.34 111.083 111.829 110.572L104.246 102.989C104.882 102.389 105.47 101.74 106.004 101.047Z" fill="white"/>
<path d="M93.0622 79.4552C86.6187 79.4552 81.3955 84.6784 81.3955 91.1219C81.3955 97.5653 86.6187 102.789 93.0622 102.789C99.5056 102.789 104.729 97.5653 104.729 91.1219C104.722 84.6813 99.5028 79.4626 93.0622 79.4552ZM93.0622 100.455C87.9073 100.455 83.7288 96.2767 83.7288 91.1219C83.7288 85.9676 87.9073 81.7885 93.0622 81.7885C98.217 81.7885 102.396 85.9676 102.396 91.1219C102.39 96.2745 98.2142 100.45 93.0622 100.455Z" fill="white"/>
<path d="M86.0621 91.1219H88.3955C88.3955 88.5448 90.485 86.4553 93.0621 86.4553V84.1219C89.1976 84.1259 86.0661 87.2574 86.0621 91.1219Z" fill="white"/>
</g>
<defs>
<clipPath id="clip0">
<rect width="70" height="70" fill="white" transform="translate(46.3955 43.2886)"/>
</clipPath>
</defs>
</svg>
