<svg width="122" height="30" viewBox="0 0 122 30" fill="none" xmlns="http://www.w3.org/2000/svg">
<path d="M122 3.67919C120.675 2.5733 119.17 1.70786 117.486 1.08289C115.566 0.360963 113.674 0 111.808 0C110.422 0 109.022 0.173797 107.609 0.521391C106.197 0.868985 104.917 1.44385 103.771 2.24599C102.651 3.02139 101.732 4.02407 101.012 5.25401C100.512 6.10891 100.185 7.09298 100.033 8.20622C107.368 6.67202 114.732 5.15298 122 3.67919Z" fill="#FF8D75"/>
<path d="M99.9966 8.21376V0.802141H90.5202V10.2076C93.6669 9.54176 96.829 8.87635 99.9966 8.21376Z" fill="#FF8D75"/>
<path d="M83.0031 15.4773V17.0053C83.0031 18.369 83.323 19.4385 83.9627 20.2139C84.6292 20.9626 85.5621 21.3369 86.7617 21.3369C87.9612 21.3369 88.8809 20.9626 89.5206 20.2139C90.187 19.4385 90.5202 18.369 90.5202 17.0053V14.3314C93.8554 13.8426 97.0074 13.408 99.9966 13.021V18.0481C99.9966 19.7326 99.7034 21.3102 99.117 22.7808C98.5572 24.2246 97.7175 25.4813 96.5979 26.5508C95.4784 27.6203 94.0789 28.4626 92.3995 29.0775C90.7468 29.6925 88.8142 30 86.6017 30C84.3892 30 82.4567 29.6925 80.8039 29.0775C79.1779 28.4626 77.8184 27.6203 76.7255 26.5508C75.6326 25.4813 74.8196 24.2246 74.2864 22.7808C73.7533 21.3102 73.4867 19.7326 73.4867 18.0481V17.0416C76.806 16.4761 79.9741 15.956 83.0031 15.4773Z" fill="#FF8D75"/>
<path d="M83.0031 11.8051V0.802141H73.4867V13.8469C76.6266 13.1697 79.8024 12.4882 83.0031 11.8051Z" fill="#FF8D75"/>
<path fill-rule="evenodd" clip-rule="evenodd" d="M71.9673 14.1749C72.6373 12.9497 72.9722 11.567 72.9722 10.0267C72.9722 8.2353 72.639 6.75134 71.9726 5.57487C71.3062 4.37166 70.4265 3.42246 69.3336 2.72727C68.2674 2.00535 67.0412 1.5107 65.655 1.24332C64.2955 0.9492 62.9227 0.802141 61.5366 0.802141H49.3412V19.1237C56.5329 17.531 64.1321 15.8676 71.9673 14.1749ZM60.337 12.7941H58.4578V8.22193H60.7369C61.0301 8.22193 61.35 8.24866 61.6965 8.30214C62.0431 8.32888 62.3629 8.42246 62.6562 8.58289C62.9494 8.71658 63.1893 8.93048 63.3759 9.2246C63.5625 9.51872 63.6558 9.91979 63.6558 10.4278C63.6558 10.9358 63.5358 11.3503 63.2959 11.6711C63.0827 11.9652 62.8028 12.2059 62.4562 12.393C62.1364 12.5535 61.7765 12.6604 61.3766 12.7139C61.0035 12.7674 60.6569 12.7941 60.337 12.7941Z" fill="#FF8D75"/>
<path d="M48.387 19.3351C48.4263 18.9133 48.4459 18.4843 48.4459 18.0481V0.802141H38.9695V17.0053C38.9695 18.369 38.6363 19.4385 37.9699 20.2139C37.3302 20.9626 36.4105 21.3369 35.211 21.3369C34.0114 21.3369 33.0785 20.9626 32.412 20.2139C31.7723 19.4385 31.4524 18.369 31.4524 17.0053V0.802141H0V8.86364H6.95735V28.8033C9.78302 28.1276 12.972 27.3765 16.4737 26.5624V8.86364H21.936V18.0481C21.936 19.7326 22.2026 21.3102 22.7357 22.7808C23.0119 23.5287 23.3632 24.2265 23.7896 24.874C31.1123 23.1956 39.4239 21.3222 48.387 19.3351Z" fill="#FF8D75"/>
<path d="M25.004 26.3798C25.8725 26.1993 26.7602 26.0144 27.6675 25.8252C34.8785 24.3213 41.6178 22.9613 47.9297 21.7311C47.8246 22.0869 47.7035 22.4367 47.5663 22.7808C47.0065 24.2246 46.1668 25.4813 45.0472 26.5508C43.9277 27.6203 42.5282 28.4626 40.8488 29.0775C39.1961 29.6925 37.2635 30 35.051 30C32.8385 30 30.906 29.6925 29.2532 29.0775C27.6272 28.4626 26.2677 27.6203 25.1748 26.5508C25.1171 26.4943 25.0601 26.4373 25.004 26.3798Z" fill="#FF8D75"/>
<path d="M16.4737 28.1412C14.6284 28.5194 12.9003 28.8713 11.2859 29.1979H16.4737V28.1412Z" fill="#FF8D75"/>
<path d="M49.3412 21.4568C52.5142 20.8419 55.5777 20.2602 58.5377 19.7098V29.1979H49.3412V21.4568Z" fill="#FF8D75"/>
<path d="M59.1135 19.6029L64.2556 29.1979H75.2114L68.1853 17.9608C65.2738 18.4743 62.2522 19.0209 59.1135 19.6029Z" fill="#FF8D75"/>
<path d="M100.514 12.9542C105.401 12.3268 109.849 11.8273 113.95 11.4268C114.451 11.6035 114.963 11.7919 115.486 11.992C116.606 12.4198 117.632 12.9813 118.565 13.6765C119.525 14.3449 120.311 15.1738 120.924 16.1631C121.537 17.1524 121.844 18.3824 121.844 19.8529C121.844 21.5642 121.497 23.0615 120.804 24.3449C120.138 25.6016 119.245 26.6578 118.125 27.5134C117.032 28.3422 115.793 28.9572 114.407 29.3583C113.021 29.7861 111.608 30 110.168 30C109.022 30 107.889 29.8931 106.77 29.6791C105.677 29.492 104.611 29.2112 103.571 28.8369C102.558 28.4358 101.598 27.9813 100.692 27.4733C99.7857 26.9385 98.9727 26.3503 98.2529 25.7086L104.051 19.3717C104.717 20.0936 105.597 20.7353 106.69 21.2968C107.809 21.8583 108.956 22.139 110.128 22.139C110.662 22.139 111.141 22.0455 111.568 21.8583C112.021 21.6711 112.248 21.3235 112.248 20.8155C112.248 20.5481 112.168 20.3209 112.008 20.1337C111.874 19.9465 111.621 19.7594 111.248 19.5722C110.875 19.3583 110.355 19.131 109.689 18.8904C109.049 18.6497 108.236 18.369 107.25 18.0481C106.29 17.7273 105.37 17.3529 104.491 16.9251C103.611 16.4706 102.825 15.9225 102.131 15.2808C101.465 14.639 100.932 13.877 100.532 12.9947C100.526 12.9812 100.52 12.9678 100.514 12.9542Z" fill="#FF8D75"/>
</svg>
