<svg width="62" height="50" viewBox="0 0 62 50" fill="none" xmlns="http://www.w3.org/2000/svg">
<path d="M19.3947 49.7952C42.4222 49.7952 55.0141 30.7181 55.0141 14.1757C55.0141 13.6339 55.0031 13.0944 54.9788 12.5575C57.4232 10.7904 59.5479 8.58511 61.2235 6.07477C58.9805 7.07183 56.5665 7.74305 54.0342 8.04571C56.619 6.49581 58.6034 4.04404 59.5394 1.12121C57.1206 2.55517 54.4418 3.59739 51.5898 4.15999C49.3052 1.72653 46.0529 0.204712 42.4515 0.204712C35.538 0.204712 29.9315 5.81118 29.9315 12.7222C29.9315 13.7046 30.0414 14.6602 30.2562 15.5767C19.8511 15.0532 10.625 10.0716 4.45107 2.4966C3.3759 4.34671 2.75595 6.49581 2.75595 8.78892C2.75595 13.1323 4.96607 16.9667 8.32702 19.2098C6.27311 19.1464 4.34367 18.5825 2.6571 17.6441C2.65525 17.6966 2.65526 17.7478 2.65526 17.8039C2.65526 23.8668 6.97055 28.929 12.699 30.0761C11.6471 30.3629 10.5402 30.5167 9.3979 30.5167C8.59245 30.5167 7.80773 30.4374 7.04499 30.2909C8.63881 35.2652 13.2604 38.8849 18.74 38.9862C14.4552 42.3447 9.05741 44.3449 3.19101 44.3449C2.18174 44.3449 1.18468 44.2875 0.204712 44.1716C5.74528 47.723 12.3244 49.7952 19.3953 49.7952" fill="#FF8D75"/>
</svg>
