<svg width="72" height="50" viewBox="0 0 72 50" fill="none" xmlns="http://www.w3.org/2000/svg">
<path d="M28.2247 34.1885L47.3648 24.2718L28.2247 14.2856V34.1885Z" fill="white"/>
<path opacity="0.12" d="M28.2247 14.2856L45.007 25.4923L47.3648 24.2718L28.2247 14.2856Z" fill="#420000"/>
<path d="M70.2496 10.839C70.2496 10.839 69.5561 5.95694 67.4341 3.80715C64.7433 0.984679 61.7198 0.970809 60.3397 0.804374C50.423 0.0900879 35.5547 0.0900879 35.5547 0.0900879H35.527C35.527 0.0900879 20.6587 0.0900879 10.742 0.804374C9.36193 0.970809 6.33835 0.984679 3.64764 3.80715C1.52559 5.95694 0.832107 10.839 0.832107 10.839C0.832107 10.839 0.124756 16.5672 0.124756 22.3023V27.6768C0.124756 33.4119 0.832107 39.14 0.832107 39.14C0.832107 39.14 1.52559 44.0221 3.64764 46.1719C6.34528 48.9944 9.88204 48.9042 11.4562 49.2024C17.122 49.7433 35.5408 49.9167 35.5408 49.9167C35.5408 49.9167 50.423 49.8959 60.3397 49.1747C61.7267 49.0083 64.7433 48.9944 67.4341 46.1719C69.5561 44.0221 70.2496 39.14 70.2496 39.14C70.2496 39.14 70.9569 33.4049 70.9569 27.6768V22.3023C70.9569 16.5672 70.2496 10.839 70.2496 10.839ZM28.2246 34.1886V14.2856L47.3647 24.2718L28.2246 34.1886Z" fill="#FF8D75"/>
</svg>
